<?xml version="1.0" encoding="utf-8"?>
<!-- Generated by IcoMoon.io -->
<!DOCTYPE svg PUBLIC "-//W3C//DTD SVG 1.1//EN" "http://www.w3.org/Graphics/SVG/1.1/DTD/svg11.dtd">
<svg version="1.1" xmlns="http://www.w3.org/2000/svg" xmlns:xlink="http://www.w3.org/1999/xlink" width="28" height="28" viewBox="0 0 28 28">
<path fill="#444" d="M20.121 8.304l-3.548 4.731h1.81c0.533 0 0.966 0.432 0.966 0.966s-0.432 0.966-0.966 0.966h-3.259l-0.121 0.161v1.288h3.379c0.533 0 0.966 0.432 0.966 0.966s-0.432 0.966-0.966 0.966h-3.379v3.379c0 0.533-0.432 0.966-0.966 0.966s-0.966-0.432-0.966-0.966v-3.379h-3.379c-0.533 0-0.966-0.432-0.966-0.966s0.432-0.966 0.966-0.966h3.379v-1.288l-0.121-0.161h-3.259c-0.533 0-0.966-0.432-0.966-0.966s0.432-0.966 0.966-0.966h1.81l-3.548-4.731c-0.32-0.427-0.234-1.032 0.193-1.352 0.429-0.321 1.033-0.233 1.352 0.193l4.418 5.89h0.242l4.417-5.89c0.32-0.426 0.924-0.514 1.352-0.193 0.426 0.319 0.513 0.924 0.193 1.351zM28.039 14c0 7.732-6.268 14-14 14s-14-6.268-14-14 6.268-14 14-14 14 6.268 14 14zM25.739 14c0-6.462-5.238-11.7-11.7-11.7s-11.7 5.238-11.7 11.7 5.238 11.7 11.7 11.7 11.7-5.238 11.7-11.7z"></path>
</svg>
