<?xml version="1.0" encoding="utf-8"?>
<!-- Generated by IcoMoon.io -->
<!DOCTYPE svg PUBLIC "-//W3C//DTD SVG 1.1//EN" "http://www.w3.org/Graphics/SVG/1.1/DTD/svg11.dtd">
<svg version="1.1" xmlns="http://www.w3.org/2000/svg" xmlns:xlink="http://www.w3.org/1999/xlink" width="28" height="28" viewBox="0 0 28 28">
<path fill="#444" d="M19.289 4.044h-10.578c-1.030 0-1.867 0.837-1.867 1.867v15.867c0 1.030 0.837 1.867 1.867 1.867h10.578c1.030 0 1.867-0.837 1.867-1.867v-15.867c0-1.030-0.837-1.867-1.867-1.867zM10.578 21.156c0 0.171-0.14 0.311-0.311 0.311h-0.933c-0.171 0-0.311-0.14-0.311-0.311v-0.933c0-0.171 0.14-0.311 0.311-0.311h0.933c0.171 0 0.311 0.14 0.311 0.311v0.933zM10.578 18.356c0 0.171-0.14 0.311-0.311 0.311h-0.933c-0.171 0-0.311-0.14-0.311-0.311v-0.933c0-0.171 0.14-0.311 0.311-0.311h0.933c0.171 0 0.311 0.14 0.311 0.311v0.933zM10.578 15.556c0 0.171-0.14 0.311-0.311 0.311h-0.933c-0.171 0-0.311-0.14-0.311-0.311v-0.933c0-0.171 0.14-0.311 0.311-0.311h0.933c0.171 0 0.311 0.14 0.311 0.311v0.933zM10.578 12.756c0 0.171-0.14 0.311-0.311 0.311h-0.933c-0.171 0-0.311-0.14-0.311-0.311v-0.933c0-0.171 0.14-0.311 0.311-0.311h0.933c0.171 0 0.311 0.14 0.311 0.311v0.933zM13.378 21.156c0 0.171-0.14 0.311-0.311 0.311h-0.933c-0.171 0-0.311-0.14-0.311-0.311v-0.933c0-0.171 0.14-0.311 0.311-0.311h0.933c0.171 0 0.311 0.14 0.311 0.311v0.933zM13.378 18.356c0 0.171-0.14 0.311-0.311 0.311h-0.933c-0.171 0-0.311-0.14-0.311-0.311v-0.933c0-0.171 0.14-0.311 0.311-0.311h0.933c0.171 0 0.311 0.14 0.311 0.311v0.933zM13.378 15.556c0 0.171-0.14 0.311-0.311 0.311h-0.933c-0.171 0-0.311-0.14-0.311-0.311v-0.933c0-0.171 0.14-0.311 0.311-0.311h0.933c0.171 0 0.311 0.14 0.311 0.311v0.933zM13.378 12.756c0 0.171-0.14 0.311-0.311 0.311h-0.933c-0.171 0-0.311-0.14-0.311-0.311v-0.933c0-0.171 0.14-0.311 0.311-0.311h0.933c0.171 0 0.311 0.14 0.311 0.311v0.933zM16.178 21.156c0 0.171-0.14 0.311-0.311 0.311h-0.933c-0.171 0-0.311-0.14-0.311-0.311v-0.933c0-0.171 0.14-0.311 0.311-0.311h0.933c0.171 0 0.311 0.14 0.311 0.311v0.933zM16.178 18.356c0 0.171-0.14 0.311-0.311 0.311h-0.933c-0.171 0-0.311-0.14-0.311-0.311v-0.933c0-0.171 0.14-0.311 0.311-0.311h0.933c0.171 0 0.311 0.14 0.311 0.311v0.933zM16.178 15.556c0 0.171-0.14 0.311-0.311 0.311h-0.933c-0.171 0-0.311-0.14-0.311-0.311v-0.933c0-0.171 0.14-0.311 0.311-0.311h0.933c0.171 0 0.311 0.14 0.311 0.311v0.933zM16.178 12.756c0 0.171-0.14 0.311-0.311 0.311h-0.933c-0.171 0-0.311-0.14-0.311-0.311v-0.933c0-0.171 0.14-0.311 0.311-0.311h0.933c0.171 0 0.311 0.14 0.311 0.311v0.933zM18.978 21.156c0 0.171-0.14 0.311-0.311 0.311h-0.933c-0.171 0-0.311-0.14-0.311-0.311v-3.733c0-0.171 0.14-0.311 0.311-0.311h0.933c0.171 0 0.311 0.14 0.311 0.311v3.733zM18.978 15.556c0 0.171-0.14 0.311-0.311 0.311h-0.933c-0.171 0-0.311-0.14-0.311-0.311v-0.933c0-0.171 0.14-0.311 0.311-0.311h0.933c0.171 0 0.311 0.14 0.311 0.311v0.933zM18.978 12.756c0 0.171-0.14 0.311-0.311 0.311h-0.933c-0.171 0-0.311-0.14-0.311-0.311v-0.933c0-0.171 0.14-0.311 0.311-0.311h0.933c0.171 0 0.311 0.14 0.311 0.311v0.933zM19.6 8.711c0 0.342-0.28 0.622-0.622 0.622h-9.956c-0.342 0-0.622-0.28-0.622-0.622v-2.178c0-0.342 0.28-0.622 0.622-0.622h9.956c0.342 0 0.622 0.28 0.622 0.622v2.178z"></path>
</svg>
