<?xml version="1.0" encoding="utf-8"?>
<!-- Generated by IcoMoon.io -->
<!DOCTYPE svg PUBLIC "-//W3C//DTD SVG 1.1//EN" "http://www.w3.org/Graphics/SVG/1.1/DTD/svg11.dtd">
<svg version="1.1" xmlns="http://www.w3.org/2000/svg" xmlns:xlink="http://www.w3.org/1999/xlink" width="28" height="28" viewBox="0 0 28 28">
<path fill="#444" d="M22.938 6.496l-2.694 1.646 0.196 0.333c-1.311-0.374-3.915-1.048-5.289-1.048-1.3 0-1.994 0.336-2.896 0.771-0.177 0.084-1.643 0.787-1.671 0.793l-3.148-0.009-2.903 3.973 2.041 1.876c-0.172 0.45-0.071 0.889 0.202 1.204 0.262 0.305 0.653 0.474 1.117 0.385-0.311 0.591-0.272 1.067 0.075 1.465 0.335 0.385 0.805 0.528 1.437 0.29-0.112 0.425-0.072 0.806 0.224 1.151 0.267 0.311 0.665 0.476 1.139 0.392l0.112-0.022c-0.201 0.527-0.11 0.948 0.174 1.276 0.432 0.503 1.178 0.558 1.664 0.128l0.442-0.382 0.426 0.799c0.209 0.397 0.715 0.595 1.167 0.358 0.446-0.24 0.583-0.763 0.37-1.17-0.308-0.576-0.815-1.509-0.815-1.509 0.018-0.434-0.135-0.62-0.364-0.859l0.324-0.218c0 0 0.915 1.755 1.244 2.377 0.21 0.406 0.721 0.591 1.167 0.357 0.461-0.248 0.577-0.777 0.37-1.173l-1.341-2.504 0.38-0.24 1.493 2.812c0.225 0.427 0.748 0.581 1.167 0.361 0.459-0.25 0.582-0.769 0.37-1.173l-1.552-2.922 0.395-0.236c0 0 1.027 1.972 1.397 2.676 0.209 0.397 0.715 0.595 1.167 0.358 0.432-0.23 0.594-0.747 0.37-1.173l-1.024-1.929c0.758-0.449 1.234-1.134 1.783-1.973l1.369-0.862 0.423 0.676 2.916-1.518-3.423-5.537zM9.265 17.587c-0.259 0.231-0.656 0.191-0.865-0.059-0.22-0.246-0.175-0.787 0.249-1.055 0.029-0.019 2.376-2.051 2.399-2.072 0.249-0.221 0.639-0.203 0.868 0.062 0.228 0.259 0.207 0.648-0.053 0.875l-2.598 2.249zM10.926 19.030c-0.256 0.227-0.65 0.195-0.868-0.059-0.212-0.246-0.208-0.603 0.006-0.834 0.035-0.035 1.901-1.65 1.938-1.683 0.254-0.226 0.644-0.196 0.868 0.059 0.234 0.273 0.199 0.663-0.053 0.877l-1.892 1.64zM13.539 19.653l-1.185 1.024c-0.254 0.225-0.646 0.198-0.871-0.062-0.231-0.263-0.195-0.66 0.056-0.875l1.185-1.033c0.226-0.194 0.589-0.214 0.849 0.046 0.207 0.166 0.277 0.628-0.034 0.899zM21.295 13.303c-0.044 0.044-0.089 0.085-0.115 0.124-0.401 0.626-0.992 1.404-1.591 1.716-2.368-3.241-3.69-4.302-5.406-5.829l-3.998 1.873c-0.299 0.149-0.674 0.021-0.824-0.292-0.151-0.308-0.024-0.682 0.286-0.831l3.876-1.817c0.492-0.18 1.002-0.265 1.633-0.265 1.319 0 4.436 0.867 5.739 1.23l1.883 3.212-1.484 0.878zM1.286 11.078l3.347-4.868 2.462 1.974-3.27 4.537-2.539-1.643zM7.205 15.677c-0.233-0.266-0.194-0.663 0.053-0.874l2.125-1.848c0.258-0.215 0.649-0.192 0.871 0.065 0.23 0.264 0.205 0.65-0.053 0.877l-2.128 1.842c-0.226 0.206-0.633 0.21-0.868-0.062z"></path>
</svg>
