<?xml version="1.0" encoding="utf-8"?>
<!-- Generated by IcoMoon.io -->
<!DOCTYPE svg PUBLIC "-//W3C//DTD SVG 1.1//EN" "http://www.w3.org/Graphics/SVG/1.1/DTD/svg11.dtd">
<svg version="1.1" xmlns="http://www.w3.org/2000/svg" xmlns:xlink="http://www.w3.org/1999/xlink" width="28" height="28" viewBox="0 0 28 28">
<path fill="#444" d="M21.956 22.591h-15.911c-0.703 0-1.273 0.57-1.273 1.273s0.57 1.273 1.273 1.273h15.91c0.704 0 1.273-0.57 1.273-1.273s-0.57-1.273-1.272-1.273z"></path>
<path fill="#444" d="M4.455 13.045v3.182c0 0.527 0.428 0.955 0.954 0.955s0.955-0.428 0.955-0.955v-3.182c0-0.527-0.428-0.954-0.955-0.954s-0.954 0.428-0.954 0.954z"></path>
<path fill="#444" d="M7.636 11.773v4.454c0 0.527 0.428 0.955 0.955 0.955s0.954-0.428 0.954-0.955v-4.454c0-0.527-0.428-0.955-0.954-0.955s-0.955 0.428-0.955 0.955z"></path>
<path fill="#444" d="M10.818 10.5v5.727c0 0.527 0.428 0.955 0.955 0.955s0.954-0.428 0.954-0.955v-5.727c0-0.527-0.428-0.955-0.954-0.955s-0.955 0.428-0.955 0.955z"></path>
<path fill="#444" d="M26.727 2.863h-25.454c-0.703 0-1.273 0.57-1.273 1.273v15.91c0 0.703 0.57 1.273 1.273 1.273h24.291c-0.037-0.033-0.079-0.060-0.114-0.094l-1.762-1.763c-1.016 0.574-2.166 0.881-3.345 0.881-1.607 0-3.129-0.554-4.353-1.569h-13.446v-13.366h22.91v3.588c1.106 1.248 1.718 2.833 1.718 4.516 0 1.179-0.306 2.329-0.879 3.343l1.707 1.708v-14.428c0.001-0.702-0.57-1.273-1.273-1.273z"></path>
<path fill="#444" d="M25.243 17.607c-0.127-0.128-0.297-0.179-0.463-0.161l-0.268-0.268c0.894-1.015 1.387-2.3 1.387-3.665 0-1.483-0.577-2.879-1.626-3.928-1.050-1.052-2.445-1.628-3.93-1.628-1.483 0-2.878 0.577-3.927 1.628-1.051 1.049-1.629 2.444-1.629 3.928s0.579 2.879 1.629 3.928c1.050 1.050 2.444 1.627 3.927 1.627 1.366 0 2.651-0.493 3.665-1.388l0.269 0.267c-0.018 0.167 0.033 0.335 0.161 0.464l1.914 1.914c0.111 0.111 0.257 0.166 0.403 0.166 0.145 0 0.291-0.055 0.403-0.166 0.222-0.223 0.222-0.583 0-0.805l-1.916-1.915zM23.467 16.635c-0.834 0.835-1.944 1.296-3.124 1.296-1.178 0-2.288-0.46-3.122-1.295-0.833-0.833-1.294-1.943-1.294-3.123s0.459-2.288 1.294-3.122c0.834-0.835 1.945-1.295 3.122-1.295 1.18 0 2.29 0.459 3.124 1.295 0.833 0.834 1.293 1.943 1.293 3.122s-0.46 2.288-1.293 3.122z"></path>
</svg>
