<?xml version="1.0" encoding="utf-8"?>
<!-- Generated by IcoMoon.io -->
<!DOCTYPE svg PUBLIC "-//W3C//DTD SVG 1.1//EN" "http://www.w3.org/Graphics/SVG/1.1/DTD/svg11.dtd">
<svg version="1.1" xmlns="http://www.w3.org/2000/svg" xmlns:xlink="http://www.w3.org/1999/xlink" width="28" height="28" viewBox="0 0 28 28">
<path fill="#444" d="M19.256 12.898c-0.617-1.073-1.573-2.288-2.952-2.942h0.205c0.258 0 0.467-0.209 0.467-0.467s-0.209-0.467-0.467-0.467h-0.69c1.043-0.619 2.032-1.481 2.032-2.339 0-0.722-0.514-1.344-1.214-1.493-0.151-0.927-0.944-1.613-1.891-1.613-0.545 0-1.056 0.231-1.422 0.639-0.287-0.161-0.608-0.245-0.937-0.245-1.062 0-1.925 0.864-1.925 1.925 0 0.98 1.202 2.289 2.327 3.126h-0.985c-0.258 0-0.467 0.209-0.467 0.467s0.209 0.467 0.467 0.467h0.205c-1.379 0.654-2.335 1.869-2.952 2.942-1.107 1.925-1.741 4.462-1.741 6.96 0 2.871 2.813 4.875 6.842 4.875s6.841-2.004 6.841-4.875c0-2.498-0.634-5.035-1.741-6.96zM15.921 15.976c-0.245 0.082-0.509-0.050-0.591-0.294-0.102-0.305-0.471-0.662-1.175-0.662-0.579 0-0.922 0.388-0.962 0.771-0.049 0.478 0.346 0.852 1.057 1.002 1.447 0.303 1.871 1.273 1.794 2.011-0.079 0.766-0.662 1.368-1.423 1.548v0.537c0 0.258-0.209 0.467-0.467 0.467s-0.467-0.209-0.467-0.467v-0.518c-0.905-0.154-1.421-0.742-1.594-1.258-0.082-0.245 0.050-0.509 0.294-0.591 0.246-0.082 0.509 0.050 0.591 0.294 0.102 0.305 0.471 0.662 1.175 0.662 0.579 0 0.922-0.388 0.962-0.771 0.049-0.478-0.346-0.852-1.057-1.002-1.447-0.303-1.871-1.273-1.794-2.011 0.079-0.766 0.662-1.368 1.423-1.548v-0.537c0-0.258 0.209-0.467 0.467-0.467s0.467 0.209 0.467 0.467v0.518c0.905 0.154 1.421 0.742 1.594 1.258 0.082 0.244-0.050 0.509-0.294 0.591z"></path>
</svg>
