<?xml version="1.0" encoding="utf-8"?>
<!-- Generated by IcoMoon.io -->
<!DOCTYPE svg PUBLIC "-//W3C//DTD SVG 1.1//EN" "http://www.w3.org/Graphics/SVG/1.1/DTD/svg11.dtd">
<svg version="1.1" xmlns="http://www.w3.org/2000/svg" xmlns:xlink="http://www.w3.org/1999/xlink" width="28" height="28" viewBox="0 0 28 28">
<path fill="#444" d="M15.607 4.985h-9.545c-0.703 0-1.273 0.57-1.273 1.273s0.57 1.273 1.273 1.273h9.545c0.704 0 1.273-0.57 1.273-1.273s-0.57-1.273-1.273-1.273z"></path>
<path fill="#444" d="M16.88 11.030c0-0.703-0.569-1.273-1.273-1.273h-9.544c-0.703 0-1.273 0.57-1.273 1.273s0.57 1.273 1.273 1.273h9.545c0.704 0 1.273-0.57 1.273-1.273z"></path>
<path fill="#444" d="M10.835 17.076c0.703 0 1.273-0.57 1.273-1.273s-0.57-1.273-1.273-1.273h-4.773c-0.703 0-1.273 0.57-1.273 1.273s0.57 1.273 1.273 1.273h4.773z"></path>
<path fill="#444" d="M20.442 21.405l-1.335 0.881v3.168h-16.545v-22.909h16.545v5.029l2.546-4.409v-1.893c0-0.703-0.57-1.273-1.273-1.273h-19.091c-0.703 0-1.273 0.57-1.273 1.273v25.456c0 0.703 0.57 1.273 1.273 1.273h19.091c0.704 0 1.274-0.57 1.274-1.273v-7.015l-0.608 1.052c-0.148 0.257-0.357 0.478-0.603 0.64z"></path>
<path fill="#444" d="M27.968 5.894c-0.026-0.114-0.295-1.143-1.914-2.078s-2.644-0.654-2.757-0.618c-0.152 0.048-0.28 0.151-0.36 0.289l-7.954 13.777c-0.049 0.086-0.079 0.182-0.085 0.281l-0.298 4.971c-0.014 0.241 0.108 0.468 0.316 0.589 0.21 0.12 0.468 0.112 0.669-0.020l4.157-2.744c0.083-0.054 0.151-0.127 0.201-0.212l7.955-13.78c0.080-0.138 0.104-0.3 0.070-0.456zM17.19 20.884c-0.211-0.171-0.452-0.332-0.71-0.482-0.259-0.15-0.519-0.275-0.773-0.374l0.089-1.491c0.332 0.043 0.824 0.178 1.449 0.538s0.986 0.72 1.191 0.985l-1.246 0.823z"></path>
<path fill="#444" d="M8.89 22.956c0.042 0.256 0.337 0.335 0.534 0.417 0.191 0.080 0.418-0.072 0.577-0.149 0.971-0.472 2.286 0.083 3.327 0.083 0.615 0 0.615-0.954 0-0.954-1.213 0-2.222-0.307-3.424-0.108 0-0.070-0.026-0.164-0.101-0.292-0.225-0.384-0.511-0.493-0.797-0.447-0.019-0.045-0.038-0.091-0.064-0.136-0.075-0.123-0.18-0.184-0.298-0.21 0.335-0.586 0.552-1.206 0.332-1.708-0.067-0.153-0.259-0.231-0.412-0.237-0.637-0.024-1.184 0.645-1.594 1.047-1.025 1.005-1.928 2.146-2.802 3.281-0.375 0.488 0.455 0.962 0.824 0.483 0.774-1.006 1.595-1.982 2.478-2.895-0.213 0.349-0.438 0.692-0.676 1.022-0.34 0.525 0.471 0.972 0.824 0.482 0.084-0.128 0.191-0.22 0.307-0.3-0.023 0.059-0.047 0.117-0.071 0.176 0.001 0 0.002 0.001 0.004 0.001-0.018 0.038-0.037 0.076-0.052 0.113-0.213 0.534 0.583 0.779 0.873 0.367 0.073-0.104 0.141-0.214 0.203-0.331-0.004 0.080-0.006 0.187 0.011 0.295z"></path>
</svg>
