<?xml version="1.0" encoding="utf-8"?>
<!-- Generated by IcoMoon.io -->
<!DOCTYPE svg PUBLIC "-//W3C//DTD SVG 1.1//EN" "http://www.w3.org/Graphics/SVG/1.1/DTD/svg11.dtd">
<svg version="1.1" xmlns="http://www.w3.org/2000/svg" xmlns:xlink="http://www.w3.org/1999/xlink" width="28" height="28" viewBox="0 0 28 28">
<path fill="#444" d="M23.9 4.1c-2.643-2.643-6.159-4.1-9.9-4.1s-7.257 1.456-9.9 4.1-4.1 6.159-4.1 9.9c0 3.742 1.456 7.257 4.1 9.9s6.159 4.1 9.9 4.1c3.742 0 7.257-1.456 9.9-4.1s4.1-6.159 4.1-9.9c0-3.742-1.456-7.257-4.1-9.9zM21.986 19.983c-1.814 2.404-4.916 5.481-8.161 5.481-3.296 0-6.002-3.12-7.816-5.594 0 0 0-0.006 0-0.006-1.212-1.645-1.927-3.673-1.927-5.87 0-5.468 4.445-9.913 9.913-9.913s9.913 4.445 9.913 9.913c0 2.216-0.728 4.263-1.965 5.914 0.019 0.031 0.031 0.050 0.044 0.075z"></path>
<path fill="#444" d="M17.214 16.875c-2.091 0.352-4.156 0.465-6.247-0.113-2.109-0.578-3.842 0.402-4.709 2.448-0.088 0.213-0.163 0.427-0.245 0.653 0 0 0 0.006 0 0.006 1.808 2.467 4.52 5.594 7.816 5.594 3.246 0 6.341-3.076 8.161-5.481-0.013-0.025-0.019-0.044-0.031-0.069-0.201-0.414-0.377-0.81-0.609-1.174-0.935-1.576-2.298-2.172-4.137-1.865z"></path>
<path fill="#444" d="M14.013 7.891c-2.191 0.044-4.062 1.959-4.018 4.125 0.044 2.191 1.959 4.062 4.125 4.018 2.191-0.044 4.062-1.959 4.018-4.125-0.038-2.21-1.971-4.081-4.125-4.018z"></path>
</svg>
