<?xml version="1.0" encoding="utf-8"?>
<!-- Generated by IcoMoon.io -->
<!DOCTYPE svg PUBLIC "-//W3C//DTD SVG 1.1//EN" "http://www.w3.org/Graphics/SVG/1.1/DTD/svg11.dtd">
<svg version="1.1" xmlns="http://www.w3.org/2000/svg" xmlns:xlink="http://www.w3.org/1999/xlink" width="20" height="28" viewBox="0 0 20 28">
<path fill="#444" d="M12.729 21.303c0 0-2.921-0.032-4.344 0.032-0.419 0.016-0.903 0.234-1.201 0.516-1.048 0.983-2.031 2.031-3.030 3.046-0.125 0.125-0.298 0.222-0.564 0.439 0-1.422 0-2.688 0-4.062-0.842 0-1.592 0-2.357 0 0-6.246 0-12.37 0-18.539 3.844 0 11.496 0 11.496 0l-0.004 1.483h1.201l0.004-1.829c0.016-1.12 0-2.373-1.837-2.373-3.296 0-8.474-0.016-10.235-0.016-1.664 0-1.858 0.758-1.858 1.95 0 2.825 0 13.474 0 19.998 0 2.671 0.274 2.397 2.498 2.397 0 1.281 0 2.466 0 3.655 1.108-1.048 2.172-2.031 3.187-3.062 0.407-0.403 0.782-0.608 1.358-0.592 1.688 0.048 3.389 0.032 5.077 0.016 0.919-0.016 1.656-0.451 1.733-1.249l0.012-3.312h-1.14l0.004 1.503zM5.182 1.346c1.189 0 2.373 0 3.546 0 0 0.064 0 0.109 0 0.173-1.189 0-2.357 0-3.546 0 0-0.064 0-0.109 0-0.173z"></path>
<path fill="#444" d="M19.99 12.012c0.218-3.389-2.764-6.717-6.544-6.717-3.622 0.016-6.608 3.062-6.576 6.749 0.032 3.655 2.982 6.669 6.576 6.669 3.872 0 6.761-3.344 6.544-6.701zM10.146 13.2c-0.294 0.532 0.125 1.281-0.576 1.749-0.234 0.157-0.157 0.766-0.234 1.173-1.342-1.044-2.123-3.465-1.608-5.262 0.359 0.278 0.625 0.484 0.886 0.717 0.455 0.359 0.89 0.717 1.314 1.108 0.125 0.125 0.282 0.407 0.218 0.516zM18.487 11.016c-0.435 1.201-0.794 2.45-1.342 3.622-0.234 0.484-0.749 0.939-1.515 0.782-0.081-0.689-0.689-1.297-0.157-2.063 0.081-0.125-0.218-0.455-0.234-0.689-0.113-1.342-0.987-1.249-1.954-1.14-0.608 0.081-1.108-0.576-1.108-1.201 0.016-1.169 1.173-2.059 2.313-1.982 0.58 0.028 1.124 0.343 1.688 0.467 0.173 0.044 0.375-0.125 0.564-0.189-0.125-0.141-0.218-0.33-0.375-0.407-0.234-0.109-0.516-0.141-0.766-0.218-0.673-0.5-1.064-0.5-1.858 0.117-0.185 0.125-0.484 0.109-0.717 0.157-0.016-0.077-0.048-0.173-0.064-0.266 0.185-0.081 0.375-0.173 0.608-0.282-0.093-0.141-0.169-0.298-0.218-0.391 0.467-0.153 0.907-0.31 1.358-0.467 0-0.064-0.016-0.109-0.016-0.173-0.093-0.016-0.205 0-0.282-0.048-0.185-0.093-0.343-0.234-0.5-0.343 0.185-0.064 0.403-0.189 0.576-0.157 1.7 0.314 3.014 1.237 3.904 2.704 0.435 0.717 0.201 1.402-0.548 1.717 0.201 0.137 0.375 0.262 0.641 0.451z"></path>
</svg>
