<?xml version="1.0" encoding="utf-8"?>
<!-- Generated by IcoMoon.io -->
<!DOCTYPE svg PUBLIC "-//W3C//DTD SVG 1.1//EN" "http://www.w3.org/Graphics/SVG/1.1/DTD/svg11.dtd">
<svg version="1.1" xmlns="http://www.w3.org/2000/svg" xmlns:xlink="http://www.w3.org/1999/xlink" width="20" height="28" viewBox="0 0 20 28">
<path fill="#444" d="M9.753 11.21c0.186 0.053 0.362 0.113 0.529 0.186 0.918 0.382 1.506 0.988 1.816 1.703 0.306 0.708 0.336 1.51 0.136 2.298-0.043 0.176-0.103 0.359-0.173 0.539l-0.944-0.299c0.063-0.156 0.116-0.316 0.16-0.482 0.146-0.579 0.13-1.161-0.086-1.659-0.213-0.492-0.628-0.911-1.284-1.187-0.136-0.057-0.286-0.106-0.449-0.153l0.296-0.944zM10.801 19.939l0.549-0.279c-0.309-1.427-1.636-3.073-1.925-3.156l-0.579 0.299-0.429 0.219-0.086 0.043-0.672 0.343c-0.938-1.413-1.104-1.899-1.719-3.535l0.585-0.299 0.861-0.439 0.249-0.13c0.113-0.509-0.748-2.873-1.4-3.422l-0.492 0.253-0.951 0.482c-0.865 0.459-1.247 1.057-1.144 1.792l0.007 0.030-0.003 0.003c0.628 3.219 1.869 5.766 4.074 8.161 0.535 0.515 1.244 0.555 2.125 0.123l0.951-0.489zM9.554 13.568c-0.486-0.153-1.004 0.116-1.161 0.602-0.153 0.486 0.116 1.004 0.602 1.161 0.486 0.153 1.004-0.116 1.161-0.602 0.153-0.486-0.116-1.004-0.602-1.161v0zM10.379 9.235l-0.299 0.944c0.186 0.043 0.372 0.1 0.552 0.17 0.934 0.352 1.733 1.021 2.231 1.905 0.502 0.885 0.705 1.992 0.442 3.219-0.053 0.256-0.13 0.515-0.226 0.785l0.944 0.299c0.103-0.296 0.186-0.585 0.246-0.875 0.316-1.486 0.066-2.833-0.549-3.917-0.615-1.087-1.596-1.909-2.743-2.341-0.19-0.076-0.392-0.14-0.599-0.19z"></path>
</svg>
