<svg style="position: absolute; width: 0; height: 0; overflow: hidden;" version="1.1" xmlns="http://www.w3.org/2000/svg" xmlns:xlink="http://www.w3.org/1999/xlink">
<defs>
<symbol id="icon-free_breakfast" viewBox="0 0 24 24">
<title>free_breakfast</title>
<path class="path1" d="M3.984 18.984h16.031v2.016h-16.031v-2.016zM20.016 8.016v-3h-2.016v3h2.016zM20.016 3c1.125 0 1.969 0.891 1.969 2.016v3c0 1.078-0.844 1.969-1.969 1.969h-2.016v3c0 2.203-1.781 4.031-3.984 4.031h-6c-2.203 0-4.031-1.828-4.031-4.031v-9.984h16.031z"></path>
</symbol>
<symbol id="icon-people2" viewBox="0 0 24 24">
<title>people2</title>
<path class="path1" d="M15.984 12.984c2.344 0 7.031 1.172 7.031 3.516v2.484h-6v-2.484c0-1.5-0.797-2.625-1.969-3.469 0.328-0.047 0.656-0.047 0.938-0.047zM8.016 12.984c2.344 0 6.984 1.172 6.984 3.516v2.484h-14.016v-2.484c0-2.344 4.688-3.516 7.031-3.516zM8.016 11.016c-1.641 0-3-1.359-3-3s1.359-3 3-3 2.953 1.359 2.953 3-1.313 3-2.953 3zM15.984 11.016c-1.641 0-3-1.359-3-3s1.359-3 3-3 3 1.359 3 3-1.359 3-3 3z"></path>
</symbol>
<symbol id="icon-playlist_add_check" viewBox="0 0 24 24">
<title>playlist_add_check</title>
<path class="path1" d="M21.516 11.484l1.5 1.5-6.984 7.031-4.547-4.5 1.5-1.5 3.047 3zM2.016 15.984v-1.969h7.969v1.969h-7.969zM14.016 6v2.016h-12v-2.016h12zM14.016 9.984v2.016h-12v-2.016h12z"></path>
</symbol>
<symbol id="icon-settings" viewBox="0 0 24 24">
<title>settings</title>
<path class="path1" d="M12 15.516c1.922 0 3.516-1.594 3.516-3.516s-1.594-3.516-3.516-3.516-3.516 1.594-3.516 3.516 1.594 3.516 3.516 3.516zM19.453 12.984l2.109 1.641c0.188 0.141 0.234 0.422 0.094 0.656l-2.016 3.469c-0.141 0.234-0.375 0.281-0.609 0.188l-2.484-0.984c-0.516 0.375-1.078 0.75-1.688 0.984l-0.375 2.625c-0.047 0.234-0.234 0.422-0.469 0.422h-4.031c-0.234 0-0.422-0.188-0.469-0.422l-0.375-2.625c-0.609-0.234-1.172-0.563-1.688-0.984l-2.484 0.984c-0.234 0.094-0.469 0.047-0.609-0.188l-2.016-3.469c-0.141-0.234-0.094-0.516 0.094-0.656l2.109-1.641c-0.047-0.328-0.047-0.656-0.047-0.984s0-0.656 0.047-0.984l-2.109-1.641c-0.188-0.141-0.234-0.422-0.094-0.656l2.016-3.469c0.141-0.234 0.375-0.281 0.609-0.188l2.484 0.984c0.516-0.375 1.078-0.75 1.688-0.984l0.375-2.625c0.047-0.234 0.234-0.422 0.469-0.422h4.031c0.234 0 0.422 0.188 0.469 0.422l0.375 2.625c0.609 0.234 1.172 0.563 1.688 0.984l2.484-0.984c0.234-0.094 0.469-0.047 0.609 0.188l2.016 3.469c0.141 0.234 0.094 0.516-0.094 0.656l-2.109 1.641c0.047 0.328 0.047 0.656 0.047 0.984s0 0.656-0.047 0.984z"></path>
</symbol>
<symbol id="icon-settings_input_composite" viewBox="0 0 24 24">
<title>settings_input_composite</title>
<path class="path1" d="M17.016 15.984v-1.969h6v1.969c0 1.313-0.844 2.391-2.016 2.813v4.219h-2.016v-4.219c-1.172-0.422-1.969-1.5-1.969-2.813zM12.984 2.016v3.984h2.016v6h-6v-6h2.016v-3.984c0-0.563 0.422-1.031 0.984-1.031s0.984 0.469 0.984 1.031zM21 6h2.016v6h-6v-6h1.969v-3.984c0-0.563 0.469-1.031 1.031-1.031s0.984 0.469 0.984 1.031v3.984zM0.984 15.984v-1.969h6v1.969c0 1.313-0.797 2.391-1.969 2.813v4.219h-2.016v-4.219c-1.172-0.422-2.016-1.5-2.016-2.813zM9 15.984v-1.969h6v1.969c0 1.313-0.844 2.391-2.016 2.813v4.219h-1.969v-4.219c-1.172-0.422-2.016-1.5-2.016-2.813zM5.016 2.016v3.984h1.969v6h-6v-6h2.016v-3.984c0-0.563 0.422-1.031 0.984-1.031s1.031 0.469 1.031 1.031z"></path>
</symbol>
<symbol id="icon-shopping-cart" viewBox="0 0 24 24">
<title>shopping-cart</title>
<path class="path1" d="M20.756 5.345c-0.191-0.219-0.466-0.345-0.756-0.345h-13.819l-0.195-1.164c-0.080-0.482-0.497-0.836-0.986-0.836h-2.25c-0.553 0-1 0.447-1 1s0.447 1 1 1h1.403l1.86 11.164c0.008 0.045 0.031 0.082 0.045 0.124 0.016 0.053 0.029 0.103 0.054 0.151 0.032 0.066 0.075 0.122 0.12 0.179 0.031 0.039 0.059 0.078 0.095 0.112 0.058 0.054 0.125 0.092 0.193 0.13 0.038 0.021 0.071 0.049 0.112 0.065 0.116 0.047 0.238 0.075 0.367 0.075 0.001 0 11.001 0 11.001 0 0.553 0 1-0.447 1-1s-0.447-1-1-1h-10.153l-0.166-1h11.319c0.498 0 0.92-0.366 0.99-0.858l1-7c0.041-0.288-0.045-0.579-0.234-0.797zM18.847 7l-0.285 2h-3.562v-2h3.847zM14 7v2h-3v-2h3zM14 10v2h-3v-2h3zM10 7v2h-3c-0.053 0-0.101 0.015-0.148 0.030l-0.338-2.030h3.486zM7.014 10h2.986v2h-2.653l-0.333-2zM15 12v-2h3.418l-0.285 2h-3.133z"></path>
<path class="path2" d="M10 19.5c0 0.828-0.672 1.5-1.5 1.5s-1.5-0.672-1.5-1.5c0-0.828 0.672-1.5 1.5-1.5s1.5 0.672 1.5 1.5z"></path>
<path class="path3" d="M19 19.5c0 0.828-0.672 1.5-1.5 1.5s-1.5-0.672-1.5-1.5c0-0.828 0.672-1.5 1.5-1.5s1.5 0.672 1.5 1.5z"></path>
</symbol>
<symbol id="icon-home-outline" viewBox="0 0 24 24">
<title>home-outline</title>
<path class="path1" d="M22.262 10.468c-3.39-2.854-9.546-8.171-9.607-8.225l-0.655-0.563-0.652 0.563c-0.062 0.053-6.221 5.368-9.66 8.248-0.438 0.394-0.688 0.945-0.688 1.509 0 1.104 0.896 2 2 2h1v6c0 1.104 0.896 2 2 2h12c1.104 0 2-0.896 2-2v-6h1c1.104 0 2-0.896 2-2 0-0.598-0.275-1.161-0.738-1.532zM14 20h-4v-5h4v5zM18 12l0.002 8c-0.002 0-3.002 0-3.002 0v-6h-6v6h-3v-8h-3.001c2.765-2.312 7.315-6.227 9.001-7.68 1.686 1.453 6.234 5.367 9 7.681 0 0-3 0-3-0.001z"></path>
</symbol>
<symbol id="icon-location-outline" viewBox="0 0 24 24">
<title>location-outline</title>
<path class="path1" d="M12 5c1.609 0 3.12 0.614 4.254 1.73 1.126 1.107 1.746 2.579 1.746 4.14s-0.62 3.030-1.745 4.139l-4.255 4.184-4.254-4.186c-1.125-1.107-1.745-2.576-1.745-4.139s0.62-3.032 1.745-4.141c1.135-1.113 2.647-1.727 4.254-1.727M12 3c-2.047 0-4.096 0.768-5.657 2.305-3.124 3.074-3.124 8.057 0 11.131l5.657 5.563 5.657-5.565c3.124-3.072 3.124-8.056 0-11.129-1.561-1.537-3.609-2.305-5.657-2.305z"></path>
<path class="path2" d="M12 8.499c0.668 0 1.296 0.26 1.768 0.731 0.976 0.976 0.976 2.562 0 3.537-0.473 0.472-1.1 0.731-1.768 0.731s-1.295-0.26-1.768-0.731c-0.976-0.976-0.976-2.562 0-3.537 0.473-0.471 1.101-0.731 1.768-0.731M12 7.499c-0.896 0-1.792 0.342-2.475 1.024-1.367 1.367-1.367 3.584 0 4.951 0.684 0.684 1.578 1.024 2.475 1.024s1.792-0.342 2.475-1.024c1.366-1.367 1.366-3.584 0-4.951-0.683-0.683-1.579-1.024-2.475-1.024z"></path>
</symbol>
<symbol id="icon-alarm" viewBox="0 0 24 24">
<title>alarm</title>
<path class="path1" d="M12 20.016c3.891 0 6.984-3.141 6.984-7.031s-3.094-6.984-6.984-6.984-6.984 3.094-6.984 6.984 3.094 7.031 6.984 7.031zM12 3.984c4.969 0 9 4.031 9 9s-4.031 9-9 9-9-4.031-9-9 4.031-9 9-9zM12.516 8.016v5.25l3.984 2.344-0.75 1.219-4.734-2.813v-6h1.5zM7.875 3.375l-4.594 3.844-1.266-1.5 4.594-3.844zM21.984 5.719l-1.266 1.547-4.594-3.891 1.266-1.5z"></path>
</symbol>
<symbol id="icon-alarm_off" viewBox="0 0 24 24">
<title>alarm_off</title>
<path class="path1" d="M8.016 3.281l-0.844 0.703-1.453-1.406 0.891-0.703zM16.453 18.375l-9.844-9.844c-0.984 1.219-1.594 2.766-1.594 4.453 0 3.891 3.094 7.031 6.984 7.031 1.688 0 3.234-0.656 4.453-1.641zM2.906 2.297c6.154 6.143 12.313 12.281 18.469 18.422l-1.266 1.266-2.203-2.203c-1.594 1.359-3.656 2.203-5.906 2.203-4.969 0-9-4.031-9-9 0-2.25 0.844-4.266 2.203-5.859l-0.797-0.797-1.125 0.938-1.406-1.453 1.125-0.891-1.359-1.359zM21.984 5.719l-1.266 1.547-4.594-3.891 1.266-1.5zM12 6c-0.844 0-1.641 0.141-2.391 0.422l-1.547-1.5c1.172-0.563 2.531-0.938 3.938-0.938 4.969 0 9 4.031 9 9 0 1.406-0.328 2.766-0.891 3.938l-1.547-1.5c0.281-0.75 0.422-1.594 0.422-2.438 0-3.891-3.094-6.984-6.984-6.984z"></path>
</symbol>
<symbol id="icon-alarm_on" viewBox="0 0 24 24">
<title>alarm_on</title>
<path class="path1" d="M10.547 14.531l4.922-4.969 1.078 1.078-6 6-3.188-3.188 1.031-1.031zM12 20.016c3.891 0 6.984-3.141 6.984-7.031s-3.094-6.984-6.984-6.984-6.984 3.094-6.984 6.984 3.094 7.031 6.984 7.031zM12 3.984c4.969 0 9 4.031 9 9s-4.031 9-9 9-9-4.031-9-9 4.031-9 9-9zM7.875 3.375l-4.594 3.844-1.266-1.5 4.594-3.844zM21.984 5.719l-1.266 1.547-4.594-3.891 1.266-1.5z"></path>
</symbol>
<symbol id="icon-all_inclusive" viewBox="0 0 24 24">
<title>all_inclusive</title>
<path class="path1" d="M18.609 6.609c3 0 5.391 2.438 5.391 5.391s-2.391 5.391-5.391 5.391c-1.453 0-2.813-0.563-3.844-1.594l-1.266-1.125 1.5-1.313 1.172 0.984c0.703 0.703 1.547 1.031 2.438 1.031 1.875 0 3.375-1.5 3.375-3.375s-1.5-3.375-3.375-3.375c-0.891 0-1.734 0.328-2.391 0.984-1.412 1.244-2.835 2.478-4.219 3.75l-2.813 2.484c-0.984 0.984-2.344 1.547-3.797 1.547-3 0-5.391-2.438-5.391-5.391s2.391-5.391 5.391-5.391c1.453 0 2.813 0.563 3.844 1.594l1.266 1.125-1.547 1.313-1.125-0.984c-0.703-0.703-1.547-1.031-2.438-1.031-1.875 0-3.375 1.5-3.375 3.375s1.5 3.375 3.375 3.375c0.891 0 1.734-0.328 2.391-0.984 1.412-1.244 2.835-2.478 4.219-3.75l2.813-2.484c0.984-0.984 2.344-1.547 3.797-1.547z"></path>
</symbol>
<symbol id="icon-create_new_folder" viewBox="0 0 24 24">
<title>create_new_folder</title>
<path class="path1" d="M18.984 14.016v-2.016h-3v-3h-1.969v3h-3v2.016h3v3h1.969v-3h3zM20.016 6c1.125 0 1.969 0.891 1.969 2.016v9.984c0 1.125-0.844 2.016-1.969 2.016h-16.031c-1.125 0-1.969-0.891-1.969-2.016v-12c0-1.125 0.844-2.016 1.969-2.016h6l2.016 2.016h8.016z"></path>
</symbol>
<symbol id="icon-not_interested" viewBox="0 0 24 24">
<title>not_interested</title>
<path class="path1" d="M18.328 16.922c1.078-1.359 1.688-3.094 1.688-4.922 0-4.406-3.609-8.016-8.016-8.016-1.828 0-3.563 0.609-4.922 1.688zM12 20.016c1.828 0 3.563-0.609 4.922-1.688l-11.25-11.25c-1.078 1.359-1.688 3.094-1.688 4.922 0 4.406 3.609 8.016 8.016 8.016zM12 2.016c5.531 0 9.984 4.453 9.984 9.984s-4.453 9.984-9.984 9.984-9.984-4.453-9.984-9.984 4.453-9.984 9.984-9.984z"></path>
</symbol>
<symbol id="icon-do_not_disturb_alt" viewBox="0 0 24 24">
<title>do_not_disturb_alt</title>
<path class="path1" d="M12 20.016c4.406 0 8.016-3.609 8.016-8.016 0-1.781-0.656-3.516-1.734-4.922l-11.203 11.203c1.406 1.078 3.141 1.734 4.922 1.734zM3.984 12c0 1.781 0.656 3.516 1.734 4.922l11.203-11.203c-1.406-1.078-3.141-1.734-4.922-1.734-4.406 0-8.016 3.609-8.016 8.016zM12 2.016c5.484 0 9.984 4.5 9.984 9.984s-4.5 9.984-9.984 9.984-9.984-4.5-9.984-9.984 4.5-9.984 9.984-9.984z"></path>
</symbol>
<symbol id="icon-favorite" viewBox="0 0 24 24">
<title>favorite</title>
<path class="path1" d="M12 21.328l-1.453-1.313c-5.156-4.688-8.531-7.734-8.531-11.531 0-3.094 2.391-5.484 5.484-5.484 1.734 0 3.422 0.844 4.5 2.109 1.078-1.266 2.766-2.109 4.5-2.109 3.094 0 5.484 2.391 5.484 5.484 0 3.797-3.375 6.891-8.531 11.578z"></path>
</symbol>
<symbol id="icon-favorite_border" viewBox="0 0 24 24">
<title>favorite_border</title>
<path class="path1" d="M12.094 18.563c4.781-4.313 7.922-7.172 7.922-10.078 0-2.016-1.5-3.469-3.516-3.469-1.547 0-3.047 0.984-3.563 2.344h-1.875c-0.516-1.359-2.016-2.344-3.563-2.344-2.016 0-3.516 1.453-3.516 3.469 0 2.906 3.141 5.766 7.922 10.078l0.094 0.094zM16.5 3c3.094 0 5.484 2.391 5.484 5.484 0 3.797-3.375 6.844-8.531 11.531l-1.453 1.313-1.453-1.266c-5.156-4.688-8.531-7.781-8.531-11.578 0-3.094 2.391-5.484 5.484-5.484 1.734 0 3.422 0.844 4.5 2.109 1.078-1.266 2.766-2.109 4.5-2.109z"></path>
</symbol>
<symbol id="icon-help_outline" viewBox="0 0 24 24">
<title>help_outline</title>
<path class="path1" d="M12 6c2.203 0 3.984 1.781 3.984 3.984 0 2.484-3 2.766-3 5.016h-1.969c0-3.234 3-3 3-5.016 0-1.078-0.938-1.969-2.016-1.969s-2.016 0.891-2.016 1.969h-1.969c0-2.203 1.781-3.984 3.984-3.984zM12 20.016c4.406 0 8.016-3.609 8.016-8.016s-3.609-8.016-8.016-8.016-8.016 3.609-8.016 8.016 3.609 8.016 8.016 8.016zM12 2.016c5.531 0 9.984 4.453 9.984 9.984s-4.453 9.984-9.984 9.984-9.984-4.453-9.984-9.984 4.453-9.984 9.984-9.984zM11.016 18v-2.016h1.969v2.016h-1.969z"></path>
</symbol>
<symbol id="icon-home" viewBox="0 0 24 24">
<title>home</title>
<path class="path1" d="M9.984 20.016h-4.969v-8.016h-3l9.984-9 9.984 9h-3v8.016h-4.969v-6h-4.031v6z"></path>
</symbol>
<symbol id="icon-lightbulb_outline" viewBox="0 0 24 24">
<title>lightbulb_outline</title>
<path class="path1" d="M14.859 13.078c1.359-0.938 2.156-2.438 2.156-4.078 0-2.766-2.25-5.016-5.016-5.016s-5.016 2.25-5.016 5.016c0 1.641 0.797 3.141 2.156 4.078l0.844 0.609v2.297h4.031v-2.297zM12 2.016c3.844 0 6.984 3.141 6.984 6.984 0 2.391-1.172 4.453-3 5.719v2.297c0 0.563-0.422 0.984-0.984 0.984h-6c-0.563 0-0.984-0.422-0.984-0.984v-2.297c-1.828-1.266-3-3.328-3-5.719 0-3.844 3.141-6.984 6.984-6.984zM9 21v-0.984h6v0.984c0 0.563-0.422 0.984-0.984 0.984h-4.031c-0.563 0-0.984-0.422-0.984-0.984z"></path>
</symbol>
<symbol id="icon-power_settings_new" viewBox="0 0 24 24">
<title>power_settings_new</title>
<path class="path1" d="M17.813 5.156c1.922 1.641 3.188 4.125 3.188 6.844 0 4.969-4.031 9-9 9s-9-4.031-9-9c0-2.719 1.266-5.203 3.188-6.844l1.406 1.406c-1.547 1.266-2.578 3.234-2.578 5.438 0 3.891 3.094 6.984 6.984 6.984s6.984-3.094 6.984-6.984c0-2.203-0.984-4.125-2.578-5.391zM12.984 3v9.984h-1.969v-9.984h1.969z"></path>
</symbol>
<symbol id="icon-timer" viewBox="0 0 24 24">
<title>timer</title>
<path class="path1" d="M12 20.016c3.891 0 6.984-3.141 6.984-7.031s-3.094-6.984-6.984-6.984-6.984 3.094-6.984 6.984 3.094 7.031 6.984 7.031zM19.031 7.406c1.219 1.547 1.969 3.469 1.969 5.578 0 4.969-4.031 9-9 9s-9-4.031-9-9 4.031-9 9-9c2.109 0 4.078 0.797 5.625 2.016l1.406-1.453c0.516 0.422 0.984 0.891 1.406 1.406zM11.016 14.016v-6h1.969v6h-1.969zM15 0.984v2.016h-6v-2.016h6z"></path>
</symbol>
<symbol id="icon-timer_off" viewBox="0 0 24 24">
<title>timer_off</title>
<path class="path1" d="M12 20.016c1.266 0 2.484-0.375 3.516-0.984l-9.563-9.563c-0.609 1.031-0.938 2.25-0.938 3.516 0 3.891 3.094 7.031 6.984 7.031zM3 3.984l17.766 17.766-1.266 1.266-2.531-2.531c-1.453 0.938-3.141 1.5-4.969 1.5-4.969 0-9-4.031-9-9 0-1.828 0.563-3.563 1.5-4.969l-2.766-2.766zM11.016 9.422v-1.406h1.969v3.422zM15 0.984v2.016h-6v-2.016h6zM19.031 4.547l1.406 1.406-1.406 1.453c1.219 1.547 1.969 3.469 1.969 5.578 0 1.828-0.563 3.563-1.5 4.969l-1.453-1.453c0.609-1.031 0.938-2.25 0.938-3.516 0-3.891-3.094-6.984-6.984-6.984-1.266 0-2.438 0.328-3.469 0.938l-1.5-1.453c1.406-0.938 3.141-1.5 4.969-1.5 2.109 0 4.078 0.75 5.625 1.969z"></path>
</symbol>
<symbol id="icon-verified_user" viewBox="0 0 24 24">
<title>verified_user</title>
<path class="path1" d="M9.984 17.016l8.016-8.016-1.406-1.406-6.609 6.563-2.578-2.578-1.406 1.406zM12 0.984l9 4.031v6c0 5.531-3.844 10.734-9 12-5.156-1.266-9-6.469-9-12v-6z"></path>
</symbol>
<symbol id="icon-find_in_page" viewBox="0 0 24 24">
<title>find_in_page</title>
<path class="path1" d="M9 12.984c0-1.641 1.359-3 3-3s3 1.359 3 3-1.359 3-3 3-3-1.359-3-3zM20.016 19.594l-3.844-3.844c0.516-0.797 0.844-1.734 0.844-2.766 0-2.766-2.25-4.969-5.016-4.969s-5.016 2.203-5.016 4.969 2.25 5.016 5.016 5.016c1.031 0 1.969-0.328 2.766-0.844l4.406 4.453c-0.328 0.234-0.703 0.375-1.172 0.375h-12c-1.078 0-2.016-0.891-2.016-1.969l0.047-16.031c0-1.078 0.891-1.969 1.969-1.969h8.016l6 6v11.578z"></path>
</symbol>
<symbol id="icon-keyboard_control" viewBox="0 0 24 24">
<title>keyboard_control</title>
<path class="path1" d="M12 9.984q0.797 0 1.406 0.609t0.609 1.406-0.609 1.406-1.406 0.609-1.406-0.609-0.609-1.406 0.609-1.406 1.406-0.609zM18 9.984q0.797 0 1.406 0.609t0.609 1.406-0.609 1.406-1.406 0.609-1.406-0.609-0.609-1.406 0.609-1.406 1.406-0.609zM6 9.984q0.797 0 1.406 0.609t0.609 1.406-0.609 1.406-1.406 0.609-1.406-0.609-0.609-1.406 0.609-1.406 1.406-0.609z"></path>
</symbol>
<symbol id="icon-more_vert" viewBox="0 0 24 24">
<title>more_vert</title>
<path class="path1" d="M12 15.984q0.797 0 1.406 0.609t0.609 1.406-0.609 1.406-1.406 0.609-1.406-0.609-0.609-1.406 0.609-1.406 1.406-0.609zM12 9.984q0.797 0 1.406 0.609t0.609 1.406-0.609 1.406-1.406 0.609-1.406-0.609-0.609-1.406 0.609-1.406 1.406-0.609zM12 8.016q-0.797 0-1.406-0.609t-0.609-1.406 0.609-1.406 1.406-0.609 1.406 0.609 0.609 1.406-0.609 1.406-1.406 0.609z"></path>
</symbol>
<symbol id="icon-notifications" viewBox="0 0 24 24">
<title>notifications</title>
<path class="path1" d="M18 15.984l2.016 2.016v0.984h-17.016v-0.984l2.016-2.016v-5.484q0-2.25 1.406-4.031t3.563-2.297v-0.656q0-0.609 0.445-1.055t1.055-0.445 1.055 0.445 0.445 1.055v0.656q2.156 0.516 3.586 2.297t1.43 4.031v5.484zM11.484 21.984q-0.797 0-1.383-0.586t-0.586-1.383h3.984q0 0.797-0.609 1.383t-1.406 0.586z"></path>
</symbol>
<symbol id="icon-notifications_none" viewBox="0 0 24 24">
<title>notifications_none</title>
<path class="path1" d="M15.984 17.016v-6.516q0-1.875-1.313-3.188t-3.188-1.313-3.188 1.313-1.313 3.188v6.516h9zM18 15.984l2.016 2.016v0.984h-17.016v-0.984l2.016-2.016v-5.484q0-2.25 1.406-4.031t3.563-2.297v-0.656q0-0.609 0.445-1.055t1.055-0.445 1.055 0.445 0.445 1.055v0.656q2.156 0.516 3.586 2.297t1.43 4.031v5.484zM11.484 21.984q-0.797 0-1.383-0.586t-0.586-1.383h3.984q0 0.797-0.609 1.383t-1.406 0.586z"></path>
</symbol>
<symbol id="icon-notifications_active" viewBox="0 0 24 24">
<title>notifications_active</title>
<path class="path1" d="M13.5 20.016q0 0.891-0.586 1.43t-1.43 0.539q-0.797 0-1.383-0.586t-0.586-1.383h3.984zM18 10.5v5.484l2.016 2.016v0.984h-17.016v-0.984l2.016-2.016v-5.484q0-2.25 1.406-4.031t3.563-2.297v-0.656q0-0.609 0.445-1.055t1.055-0.445 1.055 0.445 0.445 1.055v0.656q2.156 0.516 3.586 2.297t1.43 4.031zM19.969 9.984q-0.234-4.078-3.563-6.422l1.453-1.406q3.891 3 4.125 7.828h-2.016zM6.563 3.563q-3.281 2.344-3.516 6.422h-2.016q0.234-4.828 4.125-7.828z"></path>
</symbol>
<symbol id="icon-subject" viewBox="0 0 24 24">
<title>subject</title>
<path class="path1" d="M3.984 5.016h16.031v1.969h-16.031v-1.969zM3.984 15v-2.016h16.031v2.016h-16.031zM20.016 9v2.016h-16.031v-2.016h16.031zM14.016 17.016v1.969h-10.031v-1.969h10.031z"></path>
</symbol>
<symbol id="icon-toc" viewBox="0 0 24 24">
<title>toc</title>
<path class="path1" d="M18.984 12.984v-1.969h2.016v1.969h-2.016zM18.984 6.984h2.016v2.016h-2.016v-2.016zM18.984 17.016v-2.016h2.016v2.016h-2.016zM3 17.016v-2.016h14.016v2.016h-14.016zM3 12.984v-1.969h14.016v1.969h-14.016zM3 9v-2.016h14.016v2.016h-14.016z"></path>
</symbol>
<symbol id="icon-view_headline" viewBox="0 0 24 24">
<title>view_headline</title>
<path class="path1" d="M3.984 5.016h16.031v1.969h-16.031v-1.969zM3.984 11.016v-2.016h16.031v2.016h-16.031zM3.984 18.984v-1.969h16.031v1.969h-16.031zM3.984 15v-2.016h16.031v2.016h-16.031z"></path>
</symbol>
<symbol id="icon-view_list" viewBox="0 0 24 24">
<title>view_list</title>
<path class="path1" d="M9 5.016h12v3.984h-12v-3.984zM9 18.984v-3.984h12v3.984h-12zM9 14.016v-4.031h12v4.031h-12zM3.984 9v-3.984h4.031v3.984h-4.031zM3.984 18.984v-3.984h4.031v3.984h-4.031zM3.984 14.016v-4.031h4.031v4.031h-4.031z"></path>
</symbol>
<symbol id="icon-view_module" viewBox="0 0 24 24">
<title>view_module</title>
<path class="path1" d="M15.984 5.016h5.016v6h-5.016v-6zM9.984 11.016v-6h5.016v6h-5.016zM15.984 18v-6h5.016v6h-5.016zM9.984 18v-6h5.016v6h-5.016zM3.984 18v-6h5.016v6h-5.016zM3.984 11.016v-6h5.016v6h-5.016z"></path>
</symbol>
<symbol id="icon-loop" viewBox="0 0 24 24">
<title>loop</title>
<path class="path1" d="M12 18v-3l3.984 3.984-3.984 4.031v-3q-3.281 0-5.648-2.367t-2.367-5.648q0-2.344 1.266-4.266l1.453 1.453q-0.703 1.266-0.703 2.813 0 2.484 1.758 4.242t4.242 1.758zM12 3.984q3.281 0 5.648 2.367t2.367 5.648q0 2.344-1.266 4.266l-1.453-1.453q0.703-1.266 0.703-2.813 0-2.484-1.758-4.242t-4.242-1.758v3l-3.984-3.984 3.984-4.031v3z"></path>
</symbol>
<symbol id="icon-error" viewBox="0 0 24 24">
<title>error</title>
<path class="path1" d="M12.984 12.984v-6h-1.969v6h1.969zM12.984 17.016v-2.016h-1.969v2.016h1.969zM12 2.016q4.125 0 7.055 2.93t2.93 7.055-2.93 7.055-7.055 2.93-7.055-2.93-2.93-7.055 2.93-7.055 7.055-2.93z"></path>
</symbol>
<symbol id="icon-error_outline" viewBox="0 0 24 24">
<title>error_outline</title>
<path class="path1" d="M12 20.016q3.281 0 5.648-2.367t2.367-5.648-2.367-5.648-5.648-2.367-5.648 2.367-2.367 5.648 2.367 5.648 5.648 2.367zM12 2.016q4.125 0 7.055 2.93t2.93 7.055-2.93 7.055-7.055 2.93-7.055-2.93-2.93-7.055 2.93-7.055 7.055-2.93zM11.016 6.984h1.969v6h-1.969v-6zM11.016 15h1.969v2.016h-1.969v-2.016z"></path>
</symbol>
<symbol id="icon-add" viewBox="0 0 24 24">
<title>add</title>
<path class="path1" d="M18.984 12.984h-6v6h-1.969v-6h-6v-1.969h6v-6h1.969v6h6v1.969z"></path>
</symbol>
<symbol id="icon-add_box" viewBox="0 0 24 24">
<title>add_box</title>
<path class="path1" d="M17.016 12.984v-1.969h-4.031v-4.031h-1.969v4.031h-4.031v1.969h4.031v4.031h1.969v-4.031h4.031zM18.984 3q0.797 0 1.406 0.609t0.609 1.406v13.969q0 0.797-0.609 1.406t-1.406 0.609h-13.969q-0.844 0-1.43-0.609t-0.586-1.406v-13.969q0-0.797 0.586-1.406t1.43-0.609h13.969z"></path>
</symbol>
<symbol id="icon-add_circle" viewBox="0 0 24 24">
<title>add_circle</title>
<path class="path1" d="M17.016 12.984v-1.969h-4.031v-4.031h-1.969v4.031h-4.031v1.969h4.031v4.031h1.969v-4.031h4.031zM12 2.016q4.125 0 7.055 2.93t2.93 7.055-2.93 7.055-7.055 2.93-7.055-2.93-2.93-7.055 2.93-7.055 7.055-2.93z"></path>
</symbol>
<symbol id="icon-add_circle_outline" viewBox="0 0 24 24">
<title>add_circle_outline</title>
<path class="path1" d="M12 20.016q3.281 0 5.648-2.367t2.367-5.648-2.367-5.648-5.648-2.367-5.648 2.367-2.367 5.648 2.367 5.648 5.648 2.367zM12 2.016q4.125 0 7.055 2.93t2.93 7.055-2.93 7.055-7.055 2.93-7.055-2.93-2.93-7.055 2.93-7.055 7.055-2.93zM12.984 6.984v4.031h4.031v1.969h-4.031v4.031h-1.969v-4.031h-4.031v-1.969h4.031v-4.031h1.969z"></path>
</symbol>
<symbol id="icon-clear" viewBox="0 0 24 24">
<title>clear</title>
<path class="path1" d="M18.984 6.422l-5.578 5.578 5.578 5.578-1.406 1.406-5.578-5.578-5.578 5.578-1.406-1.406 5.578-5.578-5.578-5.578 1.406-1.406 5.578 5.578 5.578-5.578z"></path>
</symbol>
<symbol id="icon-remove" viewBox="0 0 24 24">
<title>remove</title>
<path class="path1" d="M18.984 12.984h-13.969v-1.969h13.969v1.969z"></path>
</symbol>
<symbol id="icon-remove_circle" viewBox="0 0 24 24">
<title>remove_circle</title>
<path class="path1" d="M17.016 12.984v-1.969h-10.031v1.969h10.031zM12 2.016q4.125 0 7.055 2.93t2.93 7.055-2.93 7.055-7.055 2.93-7.055-2.93-2.93-7.055 2.93-7.055 7.055-2.93z"></path>
</symbol>
<symbol id="icon-remove_circle_outline" viewBox="0 0 24 24">
<title>remove_circle_outline</title>
<path class="path1" d="M12 20.016q3.281 0 5.648-2.367t2.367-5.648-2.367-5.648-5.648-2.367-5.648 2.367-2.367 5.648 2.367 5.648 5.648 2.367zM12 2.016q4.125 0 7.055 2.93t2.93 7.055-2.93 7.055-7.055 2.93-7.055-2.93-2.93-7.055 2.93-7.055 7.055-2.93zM6.984 11.016h10.031v1.969h-10.031v-1.969z"></path>
</symbol>
<symbol id="icon-cancel" viewBox="0 0 24 24">
<title>cancel</title>
<path class="path1" d="M17.016 15.609l-3.609-3.609 3.609-3.609-1.406-1.406-3.609 3.609-3.609-3.609-1.406 1.406 3.609 3.609-3.609 3.609 1.406 1.406 3.609-3.609 3.609 3.609zM12 2.016q4.125 0 7.055 2.93t2.93 7.055-2.93 7.055-7.055 2.93-7.055-2.93-2.93-7.055 2.93-7.055 7.055-2.93z"></path>
</symbol>
<symbol id="icon-check_circle" viewBox="0 0 24 24">
<title>check_circle</title>
<path class="path1" d="M9.984 17.016l9-9-1.406-1.453-7.594 7.594-3.563-3.563-1.406 1.406zM12 2.016q4.125 0 7.055 2.93t2.93 7.055-2.93 7.055-7.055 2.93-7.055-2.93-2.93-7.055 2.93-7.055 7.055-2.93z"></path>
</symbol>
<symbol id="icon-done" viewBox="0 0 24 24">
<title>done</title>
<path class="path1" d="M9 16.219l10.594-10.641 1.406 1.406-12 12-5.578-5.578 1.359-1.406z"></path>
</symbol>
<symbol id="icon-highlight_remove" viewBox="0 0 24 24">
<title>highlight_remove</title>
<path class="path1" d="M12 20.016q3.281 0 5.648-2.367t2.367-5.648-2.367-5.648-5.648-2.367-5.648 2.367-2.367 5.648 2.367 5.648 5.648 2.367zM12 2.016q4.125 0 7.055 2.93t2.93 7.055-2.93 7.055-7.055 2.93-7.055-2.93-2.93-7.055 2.93-7.055 7.055-2.93zM14.578 8.016l1.406 1.406-2.578 2.578 2.578 2.578-1.406 1.406-2.578-2.578-2.578 2.578-1.406-1.406 2.578-2.578-2.578-2.578 1.406-1.406 2.578 2.578z"></path>
</symbol>
<symbol id="icon-search" viewBox="0 0 24 24">
<title>search</title>
<path class="path1" d="M9.516 14.016q1.875 0 3.188-1.313t1.313-3.188-1.313-3.188-3.188-1.313-3.188 1.313-1.313 3.188 1.313 3.188 3.188 1.313zM15.516 14.016l4.969 4.969-1.5 1.5-4.969-4.969v-0.797l-0.281-0.281q-1.781 1.547-4.219 1.547-2.719 0-4.617-1.875t-1.898-4.594 1.898-4.617 4.617-1.898 4.594 1.898 1.875 4.617q0 2.438-1.547 4.219l0.281 0.281h0.797z"></path>
</symbol>
<symbol id="icon-help" viewBox="0 0 24 24">
<title>help</title>
<path class="path1" d="M12 2c-5.525 0-10 4.475-10 10s4.475 10 10 10 10-4.475 10-10-4.475-10-10-10zM13 19h-2v-2h2v2zM15.065 11.255l-0.895 0.92c-0.72 0.72-1.17 1.325-1.17 2.825h-2v-0.5c0-1.105 0.45-2.105 1.17-2.83l1.245-1.26c0.36-0.36 0.585-0.86 0.585-1.41 0-1.105-0.895-2-2-2s-2 0.895-2 2h-2c0-2.21 1.79-4 4-4s4 1.79 4 4c0 0.88-0.355 1.675-0.935 2.255z"></path>
</symbol>
<symbol id="icon-info" viewBox="0 0 24 24">
<title>info</title>
<path class="path1" d="M12 2c-5.525 0-10 4.475-10 10s4.475 10 10 10 10-4.475 10-10-4.475-10-10-10zM13 17h-2v-6h2v6zM13 9h-2v-2h2v2z"></path>
</symbol>
<symbol id="icon-info-outline" viewBox="0 0 24 24">
<title>info-outline</title>
<path class="path1" d="M11 17h2v-6h-2v6zM12 2c-5.525 0-10 4.475-10 10s4.475 10 10 10 10-4.475 10-10-4.475-10-10-10zM12 20c-4.41 0-8-3.59-8-8s3.59-8 8-8 8 3.59 8 8-3.59 8-8 8zM11 9h2v-2h-2v2z"></path>
</symbol>
<symbol id="icon-phone2" viewBox="0 0 32 32">
<title>phone2</title>
<path class="path1" d="M15.331 19.76c-0.026-0.018-3.034-5.075-3.044-5.14-0.622-1.359-1.124-2.749-0.078-3.366l-4.341-7.32c-1.125 0.841-4.307 5.405 1.649 15.748 6.274 10.9 12.245 10.447 13.442 9.709l-4.23-7.145c-1 0.588-1.842-0.381-3.398-2.486zM25.862 26.617l0.001-0.006c0 0-3.303-5.566-3.305-5.568-0.262-0.441-0.825-0.58-1.264-0.324l-2.024 1.197 4.242 7.166c0 0 2.024-1.191 2.023-1.195h0.004c0.465-0.276 0.572-0.846 0.323-1.27zM14.786 9.736v-0.004c0.465-0.275 0.574-0.845 0.325-1.265l0.002-0.006c0 0-3.398-5.729-3.4-5.73-0.261-0.443-0.826-0.58-1.263-0.324l-2.024 1.197 4.336 7.324c0 0 2.023-1.189 2.024-1.192z"></path>
</symbol>
<symbol id="icon-edit2" viewBox="0 0 32 32">
<title>edit2</title>
<path class="path1" d="M10.681 18.207l-2.209 5.67 5.572-2.307-3.363-3.363zM26.855 6.097l-0.707-0.707c-0.78-0.781-2.047-0.781-2.828 0l-1.414 1.414 3.535 3.536 1.414-1.414c0.782-0.781 0.782-2.048 0-2.829zM10.793 17.918l0.506-0.506 3.535 3.535 9.9-9.9-3.535-3.535 0.707-0.708-11.113 11.114zM23.004 26.004l-17.026 0.006 0.003-17.026 11.921-0.004 1.868-1.98h-14.805c-0.552 0-1 0.447-1 1v19c0 0.553 0.448 1 1 1h19c0.553 0 1-0.447 1-1v-14.058l-2.015 1.977 0.054 11.085z"></path>
</symbol>
<symbol id="icon-paperclip" viewBox="0 0 34 32">
<title>paperclip</title>
<path class="path1" d="M5.587 31.867c2.015 0 4.183-1.026 5.707-2.551l16.883-17.169c0.866-0.866 1.348-2.014 1.356-3.231 0.009-1.22-0.459-2.364-1.316-3.222-1.768-1.767-4.661-1.751-6.462 0.048l-12.941 13.53c-0.203 0.213-0.196 0.552 0.018 0.756 0.213 0.204 0.55 0.196 0.756-0.017l12.932-13.522c1.373-1.374 3.591-1.391 4.941-0.040 0.653 0.653 1.010 1.526 1.003 2.458-0.006 0.935-0.377 1.816-1.046 2.486l-16.883 17.17c-1.776 1.775-5.426 3.385-7.615 1.194-1.037-1.037-1.557-2.309-1.503-3.679 0.053-1.36 0.693-2.72 1.807-3.833l19.296-19.584c1.026-1.026 2.629-1.62 4.396-1.626 0.011 0 0.021 0 0.032 0 1.752 0 3.333 0.577 4.342 1.586 1.016 1.015 1.594 2.609 1.587 4.374-0.007 1.767-0.601 3.369-1.634 4.402l-14.895 15.485c-0.205 0.213-0.198 0.551 0.015 0.756 0.212 0.204 0.551 0.198 0.755-0.015l14.888-15.478c1.225-1.224 1.932-3.1 1.939-5.146 0.009-2.047-0.684-3.919-1.899-5.134-1.208-1.208-3.064-1.9-5.098-1.9-0.012 0-0.024 0-0.036 0-2.047 0.008-3.923 0.715-5.15 1.942l-19.297 19.585c-2.701 2.701-2.827 6.495-0.301 9.021 0.947 0.946 2.154 1.354 3.423 1.354z"></path>
</symbol>
<symbol id="icon-lightbulb" viewBox="0 0 22 32">
<title>lightbulb</title>
<path class="path1" d="M11 0c-5.29 0-11 4.206-11 11 0 3.353 1.334 6.174 3.896 8.312 0.027 0.034 0.058 0.063 0.092 0.088 1.901 2.062 1.997 2.454 2.010 3.361 0.006 0.359 0.003 0.465 0 0.523l-0.004 0.209c-0.015 0.452-0.038 1.209 0.899 1.495l8.094 1.781c0.036 0.008 0.072 0.012 0.107 0.012 0.23 0 0.437-0.159 0.488-0.393 0.060-0.27-0.111-0.537-0.381-0.596l-8.055-1.771c-0.155-0.047-0.168-0.051-0.154-0.498l0.003-0.191c0 0 0.010-0.078 0.002-0.586-0.019-1.269-0.295-1.882-2.309-4.059-0.039-0.048-0.086-0.088-0.138-0.118-2.356-2.003-3.55-4.549-3.55-7.569 0-6.177 5.19-10 10-10 4.916 0 10 3.741 10 10 0 3.978-1.928 6.171-3.518 7.551-0.055 0.026-0.104 0.063-0.147 0.109-2.037 2.204-2.313 2.817-2.332 4.086 0 0.030-0.001 0.065 0 0.103l-0.001 0.035c-0.003 0.076-0.014 0.118-0.013 0.134-0.034-0.005-0.117-0.018-0.117-0.018l-4.195-0.987c-0.272-0.062-0.538 0.104-0.601 0.372s0.103 0.538 0.372 0.602l4.144 0.972c0.055 0.020 0.553 0.182 0.973-0.113 0.183-0.129 0.396-0.382 0.434-0.866l0.003-0.047c0.001-0.032 0.002-0.065 0.002-0.099 0-0.009 0-0.018-0.001-0.026l0.001-0.046c0.013-0.902 0.107-1.294 2.005-3.356 0.009-0.007 0.019-0.014 0.027-0.022 2.667-2.241 3.964-4.984 3.964-8.384 0-6.885-5.593-11-11-11zM15 29.5c0.229 0 0.435-0.157 0.487-0.39 0.062-0.269-0.107-0.537-0.377-0.598l-8-1.814c-0.271-0.060-0.537 0.108-0.598 0.377-0.062 0.269 0.107 0.537 0.377 0.598l8 1.814c0.038 0.009 0.075 0.013 0.111 0.013zM7.609 29.554c-0.271-0.060-0.536 0.109-0.598 0.378-0.060 0.27 0.109 0.537 0.379 0.597l6.5 1.458c0.038 0.009 0.074 0.013 0.11 0.013 0.229 0 0.436-0.158 0.488-0.391 0.060-0.27-0.109-0.537-0.379-0.597l-6.5-1.458z"></path>
</symbol>
<symbol id="icon-layers" viewBox="0 0 32 32">
<title>layers</title>
<path class="path1" d="M30.765 7.262l-11.543-6.515c-1.571-0.887-4.271-0.888-5.845 0l-11.543 6.515c-0.883 0.499-1.368 1.197-1.368 1.967s0.486 1.468 1.368 1.966l11.543 6.516c0.786 0.444 1.824 0.688 2.922 0.688s2.137-0.245 2.923-0.688l11.543-6.516c0.883-0.498 1.369-1.196 1.369-1.966s-0.487-1.468-1.369-1.967zM30.239 10.265l-11.543 6.516c-1.238 0.699-3.556 0.7-4.794 0l-11.543-6.516c-0.524-0.296-0.824-0.674-0.824-1.036s0.3-0.74 0.824-1.037l11.543-6.516c0.619-0.35 1.493-0.55 2.396-0.55 0.904 0 1.778 0.201 2.397 0.55l11.543 6.516c0.524 0.296 0.825 0.674 0.825 1.037 0.001 0.362-0.299 0.74-0.824 1.036zM30.765 14.099c-0.256-0.145-0.582-0.055-0.729 0.203-0.145 0.257-0.054 0.583 0.203 0.728 0.524 0.296 0.825 0.674 0.825 1.036s-0.301 0.74-0.825 1.036l-11.543 6.516c-1.298 0.733-3.494 0.734-4.794 0l-11.543-6.516c-0.524-0.296-0.824-0.674-0.824-1.036s0.3-0.74 0.824-1.036c0.257-0.145 0.348-0.471 0.203-0.728s-0.473-0.349-0.729-0.203c-0.883 0.498-1.368 1.197-1.368 1.967s0.485 1.469 1.368 1.967l11.543 6.516c0.819 0.462 1.871 0.694 2.922 0.694s2.104-0.231 2.923-0.694l11.543-6.516c0.883-0.498 1.369-1.197 1.369-1.967s-0.486-1.469-1.368-1.967zM30.765 20.804c-0.256-0.145-0.582-0.055-0.729 0.203-0.145 0.257-0.054 0.583 0.203 0.728 0.524 0.296 0.825 0.674 0.825 1.036s-0.301 0.74-0.825 1.037l-11.543 6.516c-1.298 0.733-3.494 0.734-4.794 0l-11.543-6.517c-0.524-0.296-0.824-0.674-0.824-1.037 0-0.362 0.3-0.74 0.824-1.036 0.257-0.145 0.348-0.471 0.203-0.728s-0.473-0.349-0.729-0.203c-0.881 0.499-1.367 1.197-1.367 1.968s0.485 1.469 1.368 1.967l11.543 6.516c0.819 0.462 1.871 0.694 2.922 0.694 1.052 0 2.104-0.231 2.923-0.694l11.543-6.516c0.883-0.499 1.369-1.197 1.369-1.967s-0.487-1.469-1.369-1.967z"></path>
</symbol>
<symbol id="icon-profile-male" viewBox="0 0 36 32">
<title>profile-male</title>
<path class="path1" d="M0.5 31.983c0.268 0.067 0.542-0.088 0.612-0.354 1.030-3.843 5.216-4.839 7.718-5.435 0.627-0.149 1.122-0.267 1.444-0.406 2.85-1.237 3.779-3.227 4.057-4.679 0.034-0.175-0.029-0.355-0.165-0.473-1.484-1.281-2.736-3.204-3.526-5.416-0.022-0.063-0.057-0.121-0.103-0.171-1.045-1.136-1.645-2.337-1.645-3.294 0-0.559 0.211-0.934 0.686-1.217 0.145-0.087 0.236-0.24 0.243-0.408 0.221-5.094 3.849-9.104 8.299-9.13 0.005 0 0.102 0.007 0.107 0.007 4.472 0.062 8.077 4.158 8.206 9.324 0.004 0.143 0.068 0.277 0.178 0.369 0.313 0.265 0.459 0.601 0.459 1.057 0 0.801-0.427 1.786-1.201 2.772-0.037 0.047-0.065 0.101-0.084 0.158-0.8 2.536-2.236 4.775-3.938 6.145-0.144 0.116-0.212 0.302-0.178 0.483 0.278 1.451 1.207 3.44 4.057 4.679 0.337 0.146 0.86 0.26 1.523 0.403 2.477 0.536 6.622 1.435 7.639 5.232 0.060 0.223 0.262 0.37 0.482 0.37 0.043 0 0.086-0.006 0.13-0.017 0.267-0.072 0.425-0.346 0.354-0.613-1.175-4.387-5.871-5.404-8.393-5.95-0.585-0.127-1.090-0.236-1.336-0.344-1.86-0.808-3.006-2.039-3.411-3.665 1.727-1.483 3.172-3.771 3.998-6.337 0.877-1.14 1.359-2.314 1.359-3.317 0-0.669-0.216-1.227-0.644-1.663-0.238-5.604-4.237-10.017-9.2-10.088l-0.149-0.002c-4.873 0.026-8.889 4.323-9.24 9.83-0.626 0.46-0.944 1.105-0.944 1.924 0 1.183 0.669 2.598 1.84 3.896 0.809 2.223 2.063 4.176 3.556 5.543-0.403 1.632-1.55 2.867-3.414 3.676-0.241 0.105-0.721 0.22-1.277 0.352-2.541 0.604-7.269 1.729-8.453 6.147-0.071 0.267 0.087 0.54 0.354 0.612z"></path>
</symbol>
<symbol id="icon-profile-female" viewBox="0 0 36 32">
<title>profile-female</title>
<path class="path1" d="M22.22 20.726c-0.157-0.024-0.317 0.038-0.425 0.155-0.109 0.116-0.156 0.278-0.126 0.435 0.276 1.45 1.205 3.44 4.057 4.679 0.338 0.146 0.86 0.26 1.522 0.403 2.478 0.536 6.622 1.434 7.64 5.232 0.060 0.223 0.262 0.37 0.483 0.37 0.043 0 0.086-0.006 0.13-0.017 0.267-0.072 0.425-0.346 0.354-0.613-1.177-4.387-5.872-5.404-8.395-5.95-0.584-0.127-1.089-0.236-1.336-0.344-1.714-0.744-2.821-1.848-3.301-3.286 4.762 0.354 6.918-1.543 7.013-1.629 0.118-0.107 0.179-0.266 0.161-0.425s-0.11-0.3-0.249-0.38c-2.748-1.57-2.748-6.995-2.748-9.038 0-5.713-3.848-10.242-8.781-10.313-0.014-0.001-0.121-0.003-0.141-0.003 0 0 0 0-0.001 0-5.005 0.028-9.077 4.562-9.077 10.108 0 2.043 0 7.469-2.748 9.038-0.145 0.083-0.238 0.232-0.251 0.398-0.012 0.166 0.060 0.328 0.191 0.431 0.138 0.107 3.188 2.441 6.941 1.732-0.502 1.378-1.594 2.438-3.258 3.161-0.241 0.105-0.721 0.22-1.277 0.352-2.54 0.604-7.269 1.729-8.453 6.147-0.071 0.268 0.087 0.541 0.354 0.613 0.271 0.067 0.541-0.088 0.613-0.354 1.029-3.844 5.217-4.839 7.718-5.435 0.627-0.149 1.122-0.267 1.444-0.406 2.852-1.239 3.78-3.229 4.057-4.679 0.033-0.173-0.027-0.351-0.159-0.467-0.131-0.117-0.312-0.157-0.482-0.104-2.707 0.852-5.208-0.32-6.301-0.97 2.611-2.186 2.611-7.217 2.611-9.457 0-4.997 3.626-9.083 8.12-9.11 0.005 0 0.102 0.006 0.106 0.006 4.432 0.063 7.774 4.066 7.774 9.312 0 2.241 0 7.283 2.622 9.469-0.903 0.516-2.962 1.351-6.402 0.939z"></path>
</symbol>
<symbol id="icon-map-pin" viewBox="0 0 24 32">
<title>map-pin</title>
<path class="path1" d="M12 0c-6.617 0-12 5.394-12 12.022 0 9.927 11.201 19.459 11.678 19.86 0.093 0.079 0.208 0.118 0.322 0.118s0.226-0.038 0.318-0.114c0.477-0.394 11.682-9.762 11.682-19.864 0-6.628-5.383-12.022-12-12.022zM12.002 30.838c-1.841-1.645-11.002-10.259-11.002-18.816 0-6.078 4.935-11.022 11-11.022s11 4.944 11 11.022c0 8.702-9.152 17.193-10.998 18.816zM12 6c-3.309 0-6 2.691-6 6s2.691 6 6 6 6-2.691 6-6-2.691-6-6-6zM12 17c-2.757 0-5-2.243-5-5s2.243-5 5-5 5 2.243 5 5-2.243 5-5 5z"></path>
</symbol>
<symbol id="icon-upload" viewBox="0 0 42 32">
<title>upload</title>
<path class="path1" d="M33.958 12.988c-0.427-6.612-5.025-12.988-13.458-12.988-7.713 0-13.661 5.733-13.976 13.384-4.22 1.313-6.524 5.829-6.524 9.116 0 5.061 4.206 9.5 9 9.5h6.5c0.276 0 0.5-0.224 0.5-0.5s-0.224-0.5-0.5-0.5h-6.5c-4.262 0-8-3.972-8-8.5 0-3.051 2.674-8.5 8-8.5h1.5c0.276 0 0.5-0.224 0.5-0.5s-0.224-0.5-0.5-0.5h-1.5c-0.509 0-0.99 0.057-1.459 0.139 0.392-5.99 4.945-12.139 12.959-12.139 8.588 0 12.5 6.739 12.5 13v1.5c0 0.276 0.224 0.5 0.5 0.5s0.5-0.224 0.5-0.5v-1.5c0-0.003 0-0.006 0-0.009 3.019 0.331 7 3.571 7 8.509 0 3.826-3.691 8.5-8 8.5h-7.5c-3.238 0-4.5-1.262-4.5-4.5v-13.717l4.078 4.070c0.098 0.098 0.226 0.147 0.354 0.147s0.256-0.049 0.354-0.146c0.195-0.195 0.195-0.513 0-0.707l-4.461-4.452c-0.594-0.592-1.055-0.592-1.648 0l-4.461 4.452c-0.195 0.194-0.195 0.512 0 0.707s0.512 0.195 0.707 0l4.077-4.071v13.717c0 3.804 1.696 5.5 5.5 5.5h7.5c4.847 0 9-5.224 9-9.5 0-5.167-4.223-9.208-8.042-9.512z"></path>
</symbol>
<symbol id="icon-download" viewBox="0 0 42 32">
<title>download</title>
<path class="path1" d="M33.958 12.982c-0.43-6.61-5.027-12.982-13.458-12.982-1.029 0-2.044 0.1-3.018 0.297-0.271 0.055-0.445 0.318-0.391 0.59 0.055 0.271 0.314 0.445 0.59 0.391 0.908-0.185 1.857-0.278 2.819-0.278 8.588 0 12.5 6.739 12.5 13v1.5c0 0.276 0.224 0.5 0.5 0.5s0.5-0.224 0.5-0.5v-1.5c0-0.005-0.001-0.011-0.001-0.016 3.063 0.264 7.001 2.932 7.001 8.516 0 4.767-3.514 8.5-8 8.5h-24c-3.976 0-8-2.92-8-8.5 0-4.094 2.504-8.5 8-8.5h1.5c0.276 0 0.5-0.224 0.5-0.5s-0.224-0.5-0.5-0.5h-1.5v-2c0-3.727 2.299-6.042 6-6.042 3.364 0 6 2.654 6 6.042v12.993l-4.16-3.86c-0.2-0.188-0.517-0.177-0.706 0.026s-0.177 0.519 0.026 0.706l4.516 4.189c0.299 0.298 0.563 0.445 0.827 0.445 0.261 0 0.52-0.145 0.808-0.433l4.529-4.202c0.203-0.188 0.215-0.504 0.026-0.706-0.188-0.204-0.506-0.215-0.706-0.026l-4.16 3.861v-12.993c0-3.949-3.075-7.042-7-7.042-4.252 0-7 2.764-7 7.042v2.051c-5.255 0.508-8 5.003-8 9.449 0 4.605 3.154 9.5 9 9.5h24c5.047 0 9-4.173 9-9.5 0-6.304-4.557-9.278-8.042-9.518z"></path>
</symbol>
<symbol id="icon-refresh" viewBox="0 0 32 32">
<title>refresh</title>
<path class="path1" d="M26.631 4h4.869c0.276 0 0.5-0.224 0.5-0.5s-0.224-0.5-0.5-0.5h-6c-0.276 0-0.5 0.224-0.5 0.5v6c0 0.276 0.224 0.5 0.5 0.5s0.5-0.224 0.5-0.5v-4.717l0.611 0.611c2.833 2.833 4.394 6.6 4.394 10.606s-1.561 7.773-4.394 10.606c-4.205 4.206-10.504 5.532-16.051 3.375-0.257-0.102-0.547 0.027-0.647 0.284-0.1 0.258 0.027 0.548 0.285 0.647 1.884 0.732 3.848 1.088 5.797 1.088 4.17 0 8.266-1.63 11.323-4.688 3.022-3.021 4.687-7.040 4.687-11.313s-1.665-8.291-4.687-11.312l-0.687-0.687zM6.5 22c-0.276 0-0.5 0.224-0.5 0.5v4.84l-0.713-0.713c-2.833-2.833-4.394-6.6-4.394-10.606s1.561-7.774 4.394-10.607c4.135-4.136 10.351-5.495 15.836-3.456 0.256 0.096 0.546-0.035 0.643-0.295 0.096-0.259-0.036-0.547-0.295-0.643-5.849-2.172-12.48-0.725-16.891 3.687-3.022 3.021-4.687 7.040-4.687 11.313s1.665 8.292 4.687 11.313l0.666 0.667h-4.746c-0.276 0-0.5 0.224-0.5 0.5s0.224 0.5 0.5 0.5h5.856c0.040 0.010 0.376-0.025 0.474-0.123 0.004-0.004 0.005-0.009 0.009-0.013 0.098-0.092 0.161-0.219 0.161-0.364v-6c0-0.276-0.224-0.5-0.5-0.5z"></path>
</symbol>
<symbol id="icon-file" viewBox="0 0 32 32">
<title>file</title>
<path class="path1" d="M20.938 4.031h-13.938v23.938h10v-2h-8v-19.938h10v3h4v11h2v-12.062l-4.062-3.938zM23 22.031h-2v2h-2v2h2v1.938h2v-2h2v-1.938h-2v-2z"></path>
</symbol>
<symbol id="icon-file2" viewBox="0 0 32 32">
<title>file2</title>
<path class="path1" d="M20.938 4.031h-13.938v23.938h10v-2h-8v-19.938h10v3h4v11h2v-12.062l-4.062-3.938zM19 25.031l6-0.062v-1.938h-6v2z"></path>
</symbol>
<symbol id="icon-hourglass" viewBox="0 0 32 32">
<title>hourglass</title>
<path class="path1" d="M24.5 28c0.275 0 0.5 0.224 0.5 0.5s0 1.5 0 1.5h-19c0 0 0-1.224 0-1.5s0.224-0.5 0.5-0.5h1.67c0.083-6.658 4.432-8.804 4.432-11.495 0-2.705-4.429-2.885-4.471-11.505h-1.631c-0.276 0-0.5-0.224-0.5-0.5s0-1.5 0-1.5h19c0 0 0 1.224 0 1.5s-0.225 0.5-0.5 0.5h-1.53c-0.042 8.62-4.471 8.8-4.471 11.505 0 2.691 4.35 4.837 4.433 11.495h1.568zM17.111 16.505c0-2.716 4.43-2.885 4.471-11.505h-12.063c0.041 8.62 4.471 8.789 4.471 11.505 0 2.611-4.351 4.812-4.433 11.495h0.758c0.178-0.593 0.769-1.306 1.79-1.834l1.327-0.677c0.834-0.431 1.334-0.722 1.5-0.872s0.354-0.486 0.564-1.008c0.221 0.521 0.41 0.857 0.57 1.008s0.654 0.441 1.484 0.872l1.32 0.677c1.015 0.528 1.604 1.241 1.779 1.834h0.894c-0.082-6.683-4.432-8.884-4.432-11.495zM16.070 15.037c-0.12 0.236-0.221 0.685-0.301 1.347-0.020 0.2-0.064 0.501-0.135 0.902-0.070-0.401-0.115-0.702-0.135-0.902-0.081-0.662-0.182-1.11-0.303-1.347-0.121-0.235-0.462-0.658-1.025-1.271l-1.251-1.368c-0.855-0.922-1.403-1.584-1.644-1.984 1.484 0.945 2.933 1.418 4.347 1.418s2.868-0.473 4.362-1.418c-0.25 0.4-0.8 1.062-1.649 1.984l-1.246 1.368c-0.56 0.613-0.901 1.036-1.020 1.271z"></path>
</symbol>
<symbol id="icon-camera2" viewBox="0 0 32 32">
<title>camera2</title>
<path class="path1" d="M28 7l-15.004 0.017 0.004-2.955-8-0.062v3h-2c-1.104 0-2 0.896-2 2v17c0 1.104 0.896 2 2 2h25c1.104 0 2-0.896 2-2v-17c0-1.104-0.896-2-2-2zM7 6h4v3h-4v-3zM12 24.958c-3.866 0-7-3.134-7-7s3.134-7 7-7c3.865 0 7 3.134 7 7s-3.135 7-7 7zM25.5 13.521c-1.105 0-2-0.895-2-2 0-1.104 0.895-2 2-2 1.104 0 2 0.896 2 2s-0.896 2-2 2zM12 13.625c-2.485 0-4.5 2.015-4.5 4.5s2.015 4.5 4.5 4.5 4.5-2.015 4.5-4.5-2.015-4.5-4.5-4.5z"></path>
</symbol>
<symbol id="icon-A0000102" viewBox="0 0 28 28">
<title>A0000102</title>
<path class="path1" d="M20.121 8.304l-3.548 4.731h1.81c0.533 0 0.966 0.432 0.966 0.966s-0.432 0.966-0.966 0.966h-3.259l-0.121 0.161v1.288h3.379c0.533 0 0.966 0.432 0.966 0.966s-0.432 0.966-0.966 0.966h-3.379v3.379c0 0.533-0.432 0.966-0.966 0.966s-0.966-0.432-0.966-0.966v-3.379h-3.379c-0.533 0-0.966-0.432-0.966-0.966s0.432-0.966 0.966-0.966h3.379v-1.288l-0.121-0.161h-3.259c-0.533 0-0.966-0.432-0.966-0.966s0.432-0.966 0.966-0.966h1.81l-3.548-4.731c-0.32-0.427-0.234-1.032 0.193-1.352 0.429-0.321 1.033-0.233 1.352 0.193l4.418 5.89h0.242l4.417-5.89c0.32-0.426 0.924-0.514 1.352-0.193 0.426 0.319 0.513 0.924 0.193 1.351zM28.039 14c0 7.732-6.268 14-14 14s-14-6.268-14-14 6.268-14 14-14 14 6.268 14 14zM25.739 14c0-6.462-5.238-11.7-11.7-11.7s-11.7 5.238-11.7 11.7 5.238 11.7 11.7 11.7 11.7-5.238 11.7-11.7z"></path>
</symbol>
<symbol id="icon-C00024" viewBox="0 0 28 28">
<title>C00024</title>
<path class="path1" d="M7.814 12.893l3.777 7.553c0 0 6.186-15.367 15.888-20.447-0.26 3.647-1.172 6.837 0.456 10.744-4.233 0.912-12.958 11.916-15.823 17.256-4.037-5.144-8.791-8.986-12.112-10.223l7.814-4.884z"></path>
</symbol>
<symbol id="icon-A000032" viewBox="0 0 28 28">
<title>A000032</title>
<path class="path1" d="M22.938 6.496l-2.694 1.646 0.196 0.333c-1.311-0.374-3.915-1.048-5.289-1.048-1.3 0-1.994 0.336-2.896 0.771-0.177 0.084-1.643 0.787-1.671 0.793l-3.148-0.009-2.903 3.973 2.041 1.876c-0.172 0.45-0.071 0.889 0.202 1.204 0.262 0.305 0.653 0.474 1.117 0.385-0.311 0.591-0.272 1.067 0.075 1.465 0.335 0.385 0.805 0.528 1.437 0.29-0.112 0.425-0.072 0.806 0.224 1.151 0.267 0.311 0.665 0.476 1.139 0.392l0.112-0.022c-0.201 0.527-0.11 0.948 0.174 1.276 0.432 0.503 1.178 0.558 1.664 0.128l0.442-0.382 0.426 0.799c0.209 0.397 0.715 0.595 1.167 0.358 0.446-0.24 0.583-0.763 0.37-1.17-0.308-0.576-0.815-1.509-0.815-1.509 0.018-0.434-0.135-0.62-0.364-0.859l0.324-0.218c0 0 0.915 1.755 1.244 2.377 0.21 0.406 0.721 0.591 1.167 0.357 0.461-0.248 0.577-0.777 0.37-1.173l-1.341-2.504 0.38-0.24 1.493 2.812c0.225 0.427 0.748 0.581 1.167 0.361 0.459-0.25 0.582-0.769 0.37-1.173l-1.552-2.922 0.395-0.236c0 0 1.027 1.972 1.397 2.676 0.209 0.397 0.715 0.595 1.167 0.358 0.432-0.23 0.594-0.747 0.37-1.173l-1.024-1.929c0.758-0.449 1.234-1.134 1.783-1.973l1.369-0.862 0.423 0.676 2.916-1.518-3.423-5.537zM9.265 17.587c-0.259 0.231-0.656 0.191-0.865-0.059-0.22-0.246-0.175-0.787 0.249-1.055 0.029-0.019 2.376-2.051 2.399-2.072 0.249-0.221 0.639-0.203 0.868 0.062 0.228 0.259 0.207 0.648-0.053 0.875l-2.598 2.249zM10.926 19.030c-0.256 0.227-0.65 0.195-0.868-0.059-0.212-0.246-0.208-0.603 0.006-0.834 0.035-0.035 1.901-1.65 1.938-1.683 0.254-0.226 0.644-0.196 0.868 0.059 0.234 0.273 0.199 0.663-0.053 0.877l-1.892 1.64zM13.539 19.653l-1.185 1.024c-0.254 0.225-0.646 0.198-0.871-0.062-0.231-0.263-0.195-0.66 0.056-0.875l1.185-1.033c0.226-0.194 0.589-0.214 0.849 0.046 0.207 0.166 0.277 0.628-0.034 0.899zM21.295 13.303c-0.044 0.044-0.089 0.085-0.115 0.124-0.401 0.626-0.992 1.404-1.591 1.716-2.368-3.241-3.69-4.302-5.406-5.829l-3.998 1.873c-0.299 0.149-0.674 0.021-0.824-0.292-0.151-0.308-0.024-0.682 0.286-0.831l3.876-1.817c0.492-0.18 1.002-0.265 1.633-0.265 1.319 0 4.436 0.867 5.739 1.23l1.883 3.212-1.484 0.878zM1.286 11.078l3.347-4.868 2.462 1.974-3.27 4.537-2.539-1.643zM7.205 15.677c-0.233-0.266-0.194-0.663 0.053-0.874l2.125-1.848c0.258-0.215 0.649-0.192 0.871 0.065 0.23 0.264 0.205 0.65-0.053 0.877l-2.128 1.842c-0.226 0.206-0.633 0.21-0.868-0.062z"></path>
</symbol>
<symbol id="icon-A000052" viewBox="0 0 28 28">
<title>A000052</title>
<path class="path1" d="M15.607 4.985h-9.545c-0.703 0-1.273 0.57-1.273 1.273s0.57 1.273 1.273 1.273h9.545c0.704 0 1.273-0.57 1.273-1.273s-0.57-1.273-1.273-1.273z"></path>
<path class="path2" d="M16.88 11.030c0-0.703-0.569-1.273-1.273-1.273h-9.544c-0.703 0-1.273 0.57-1.273 1.273s0.57 1.273 1.273 1.273h9.545c0.704 0 1.273-0.57 1.273-1.273z"></path>
<path class="path3" d="M10.835 17.076c0.703 0 1.273-0.57 1.273-1.273s-0.57-1.273-1.273-1.273h-4.773c-0.703 0-1.273 0.57-1.273 1.273s0.57 1.273 1.273 1.273h4.773z"></path>
<path class="path4" d="M20.442 21.405l-1.335 0.881v3.168h-16.545v-22.909h16.545v5.029l2.546-4.409v-1.893c0-0.703-0.57-1.273-1.273-1.273h-19.091c-0.703 0-1.273 0.57-1.273 1.273v25.456c0 0.703 0.57 1.273 1.273 1.273h19.091c0.704 0 1.274-0.57 1.274-1.273v-7.015l-0.608 1.052c-0.148 0.257-0.357 0.478-0.603 0.64z"></path>
<path class="path5" d="M27.968 5.894c-0.026-0.114-0.295-1.143-1.914-2.078s-2.644-0.654-2.757-0.618c-0.152 0.048-0.28 0.151-0.36 0.289l-7.954 13.777c-0.049 0.086-0.079 0.182-0.085 0.281l-0.298 4.971c-0.014 0.241 0.108 0.468 0.316 0.589 0.21 0.12 0.468 0.112 0.669-0.020l4.157-2.744c0.083-0.054 0.151-0.127 0.201-0.212l7.955-13.78c0.080-0.138 0.104-0.3 0.070-0.456zM17.19 20.884c-0.211-0.171-0.452-0.332-0.71-0.482-0.259-0.15-0.519-0.275-0.773-0.374l0.089-1.491c0.332 0.043 0.824 0.178 1.449 0.538s0.986 0.72 1.191 0.985l-1.246 0.823z"></path>
<path class="path6" d="M8.89 22.956c0.042 0.256 0.337 0.335 0.534 0.417 0.191 0.080 0.418-0.072 0.577-0.149 0.971-0.472 2.286 0.083 3.327 0.083 0.615 0 0.615-0.954 0-0.954-1.213 0-2.222-0.307-3.424-0.108 0-0.070-0.026-0.164-0.101-0.292-0.225-0.384-0.511-0.493-0.797-0.447-0.019-0.045-0.038-0.091-0.064-0.136-0.075-0.123-0.18-0.184-0.298-0.21 0.335-0.586 0.552-1.206 0.332-1.708-0.067-0.153-0.259-0.231-0.412-0.237-0.637-0.024-1.184 0.645-1.594 1.047-1.025 1.005-1.928 2.146-2.802 3.281-0.375 0.488 0.455 0.962 0.824 0.483 0.774-1.006 1.595-1.982 2.478-2.895-0.213 0.349-0.438 0.692-0.676 1.022-0.34 0.525 0.471 0.972 0.824 0.482 0.084-0.128 0.191-0.22 0.307-0.3-0.023 0.059-0.047 0.117-0.071 0.176 0.001 0 0.002 0.001 0.004 0.001-0.018 0.038-0.037 0.076-0.052 0.113-0.213 0.534 0.583 0.779 0.873 0.367 0.073-0.104 0.141-0.214 0.203-0.331-0.004 0.080-0.006 0.187 0.011 0.295z"></path>
</symbol>
<symbol id="icon-A000054" viewBox="0 0 28 28">
<title>A000054</title>
<path class="path1" d="M21.956 22.591h-15.911c-0.703 0-1.273 0.57-1.273 1.273s0.57 1.273 1.273 1.273h15.91c0.704 0 1.273-0.57 1.273-1.273s-0.57-1.273-1.272-1.273z"></path>
<path class="path2" d="M4.455 13.045v3.182c0 0.527 0.428 0.955 0.954 0.955s0.955-0.428 0.955-0.955v-3.182c0-0.527-0.428-0.954-0.955-0.954s-0.954 0.428-0.954 0.954z"></path>
<path class="path3" d="M7.636 11.773v4.454c0 0.527 0.428 0.955 0.955 0.955s0.954-0.428 0.954-0.955v-4.454c0-0.527-0.428-0.955-0.954-0.955s-0.955 0.428-0.955 0.955z"></path>
<path class="path4" d="M10.818 10.5v5.727c0 0.527 0.428 0.955 0.955 0.955s0.954-0.428 0.954-0.955v-5.727c0-0.527-0.428-0.955-0.954-0.955s-0.955 0.428-0.955 0.955z"></path>
<path class="path5" d="M26.727 2.863h-25.454c-0.703 0-1.273 0.57-1.273 1.273v15.91c0 0.703 0.57 1.273 1.273 1.273h24.291c-0.037-0.033-0.079-0.060-0.114-0.094l-1.762-1.763c-1.016 0.574-2.166 0.881-3.345 0.881-1.607 0-3.129-0.554-4.353-1.569h-13.446v-13.366h22.91v3.588c1.106 1.248 1.718 2.833 1.718 4.516 0 1.179-0.306 2.329-0.879 3.343l1.707 1.708v-14.428c0.001-0.702-0.57-1.273-1.273-1.273z"></path>
<path class="path6" d="M25.243 17.607c-0.127-0.128-0.297-0.179-0.463-0.161l-0.268-0.268c0.894-1.015 1.387-2.3 1.387-3.665 0-1.483-0.577-2.879-1.626-3.928-1.050-1.052-2.445-1.628-3.93-1.628-1.483 0-2.878 0.577-3.927 1.628-1.051 1.049-1.629 2.444-1.629 3.928s0.579 2.879 1.629 3.928c1.050 1.050 2.444 1.627 3.927 1.627 1.366 0 2.651-0.493 3.665-1.388l0.269 0.267c-0.018 0.167 0.033 0.335 0.161 0.464l1.914 1.914c0.111 0.111 0.257 0.166 0.403 0.166 0.145 0 0.291-0.055 0.403-0.166 0.222-0.223 0.222-0.583 0-0.805l-1.916-1.915zM23.467 16.635c-0.834 0.835-1.944 1.296-3.124 1.296-1.178 0-2.288-0.46-3.122-1.295-0.833-0.833-1.294-1.943-1.294-3.123s0.459-2.288 1.294-3.122c0.834-0.835 1.945-1.295 3.122-1.295 1.18 0 2.29 0.459 3.124 1.295 0.833 0.834 1.293 1.943 1.293 3.122s-0.46 2.288-1.293 3.122z"></path>
</symbol>
<symbol id="icon-A00005" viewBox="0 0 28 28">
<title>A00005</title>
<path class="path1" d="M19.256 12.898c-0.617-1.073-1.573-2.288-2.952-2.942h0.205c0.258 0 0.467-0.209 0.467-0.467s-0.209-0.467-0.467-0.467h-0.69c1.043-0.619 2.032-1.481 2.032-2.339 0-0.722-0.514-1.344-1.214-1.493-0.151-0.927-0.944-1.613-1.891-1.613-0.545 0-1.056 0.231-1.422 0.639-0.287-0.161-0.608-0.245-0.937-0.245-1.062 0-1.925 0.864-1.925 1.925 0 0.98 1.202 2.289 2.327 3.126h-0.985c-0.258 0-0.467 0.209-0.467 0.467s0.209 0.467 0.467 0.467h0.205c-1.379 0.654-2.335 1.869-2.952 2.942-1.107 1.925-1.741 4.462-1.741 6.96 0 2.871 2.813 4.875 6.842 4.875s6.841-2.004 6.841-4.875c0-2.498-0.634-5.035-1.741-6.96zM15.921 15.976c-0.245 0.082-0.509-0.050-0.591-0.294-0.102-0.305-0.471-0.662-1.175-0.662-0.579 0-0.922 0.388-0.962 0.771-0.049 0.478 0.346 0.852 1.057 1.002 1.447 0.303 1.871 1.273 1.794 2.011-0.079 0.766-0.662 1.368-1.423 1.548v0.537c0 0.258-0.209 0.467-0.467 0.467s-0.467-0.209-0.467-0.467v-0.518c-0.905-0.154-1.421-0.742-1.594-1.258-0.082-0.245 0.050-0.509 0.294-0.591 0.246-0.082 0.509 0.050 0.591 0.294 0.102 0.305 0.471 0.662 1.175 0.662 0.579 0 0.922-0.388 0.962-0.771 0.049-0.478-0.346-0.852-1.057-1.002-1.447-0.303-1.871-1.273-1.794-2.011 0.079-0.766 0.662-1.368 1.423-1.548v-0.537c0-0.258 0.209-0.467 0.467-0.467s0.467 0.209 0.467 0.467v0.518c0.905 0.154 1.421 0.742 1.594 1.258 0.082 0.244-0.050 0.509-0.294 0.591z"></path>
</symbol>
<symbol id="icon-A000010" viewBox="0 0 28 28">
<title>A000010</title>
<path class="path1" d="M19.289 4.044h-10.578c-1.030 0-1.867 0.837-1.867 1.867v15.867c0 1.030 0.837 1.867 1.867 1.867h10.578c1.030 0 1.867-0.837 1.867-1.867v-15.867c0-1.030-0.837-1.867-1.867-1.867zM10.578 21.156c0 0.171-0.14 0.311-0.311 0.311h-0.933c-0.171 0-0.311-0.14-0.311-0.311v-0.933c0-0.171 0.14-0.311 0.311-0.311h0.933c0.171 0 0.311 0.14 0.311 0.311v0.933zM10.578 18.356c0 0.171-0.14 0.311-0.311 0.311h-0.933c-0.171 0-0.311-0.14-0.311-0.311v-0.933c0-0.171 0.14-0.311 0.311-0.311h0.933c0.171 0 0.311 0.14 0.311 0.311v0.933zM10.578 15.556c0 0.171-0.14 0.311-0.311 0.311h-0.933c-0.171 0-0.311-0.14-0.311-0.311v-0.933c0-0.171 0.14-0.311 0.311-0.311h0.933c0.171 0 0.311 0.14 0.311 0.311v0.933zM10.578 12.756c0 0.171-0.14 0.311-0.311 0.311h-0.933c-0.171 0-0.311-0.14-0.311-0.311v-0.933c0-0.171 0.14-0.311 0.311-0.311h0.933c0.171 0 0.311 0.14 0.311 0.311v0.933zM13.378 21.156c0 0.171-0.14 0.311-0.311 0.311h-0.933c-0.171 0-0.311-0.14-0.311-0.311v-0.933c0-0.171 0.14-0.311 0.311-0.311h0.933c0.171 0 0.311 0.14 0.311 0.311v0.933zM13.378 18.356c0 0.171-0.14 0.311-0.311 0.311h-0.933c-0.171 0-0.311-0.14-0.311-0.311v-0.933c0-0.171 0.14-0.311 0.311-0.311h0.933c0.171 0 0.311 0.14 0.311 0.311v0.933zM13.378 15.556c0 0.171-0.14 0.311-0.311 0.311h-0.933c-0.171 0-0.311-0.14-0.311-0.311v-0.933c0-0.171 0.14-0.311 0.311-0.311h0.933c0.171 0 0.311 0.14 0.311 0.311v0.933zM13.378 12.756c0 0.171-0.14 0.311-0.311 0.311h-0.933c-0.171 0-0.311-0.14-0.311-0.311v-0.933c0-0.171 0.14-0.311 0.311-0.311h0.933c0.171 0 0.311 0.14 0.311 0.311v0.933zM16.178 21.156c0 0.171-0.14 0.311-0.311 0.311h-0.933c-0.171 0-0.311-0.14-0.311-0.311v-0.933c0-0.171 0.14-0.311 0.311-0.311h0.933c0.171 0 0.311 0.14 0.311 0.311v0.933zM16.178 18.356c0 0.171-0.14 0.311-0.311 0.311h-0.933c-0.171 0-0.311-0.14-0.311-0.311v-0.933c0-0.171 0.14-0.311 0.311-0.311h0.933c0.171 0 0.311 0.14 0.311 0.311v0.933zM16.178 15.556c0 0.171-0.14 0.311-0.311 0.311h-0.933c-0.171 0-0.311-0.14-0.311-0.311v-0.933c0-0.171 0.14-0.311 0.311-0.311h0.933c0.171 0 0.311 0.14 0.311 0.311v0.933zM16.178 12.756c0 0.171-0.14 0.311-0.311 0.311h-0.933c-0.171 0-0.311-0.14-0.311-0.311v-0.933c0-0.171 0.14-0.311 0.311-0.311h0.933c0.171 0 0.311 0.14 0.311 0.311v0.933zM18.978 21.156c0 0.171-0.14 0.311-0.311 0.311h-0.933c-0.171 0-0.311-0.14-0.311-0.311v-3.733c0-0.171 0.14-0.311 0.311-0.311h0.933c0.171 0 0.311 0.14 0.311 0.311v3.733zM18.978 15.556c0 0.171-0.14 0.311-0.311 0.311h-0.933c-0.171 0-0.311-0.14-0.311-0.311v-0.933c0-0.171 0.14-0.311 0.311-0.311h0.933c0.171 0 0.311 0.14 0.311 0.311v0.933zM18.978 12.756c0 0.171-0.14 0.311-0.311 0.311h-0.933c-0.171 0-0.311-0.14-0.311-0.311v-0.933c0-0.171 0.14-0.311 0.311-0.311h0.933c0.171 0 0.311 0.14 0.311 0.311v0.933zM19.6 8.711c0 0.342-0.28 0.622-0.622 0.622h-9.956c-0.342 0-0.622-0.28-0.622-0.622v-2.178c0-0.342 0.28-0.622 0.622-0.622h9.956c0.342 0 0.622 0.28 0.622 0.622v2.178z"></path>
</symbol>
<symbol id="icon-cart2" viewBox="0 0 32 32">
<title>cart2</title>
<path class="path1" d="M31.914 5.4l-2.914 11.6c0 0.139-0.028 0.27-0.078 0.389-0.102 0.24-0.293 0.432-0.532 0.533-0.12 0.051-0.252 0.078-0.39 0.078h-19l0.8 4h17.2c0.553 0 1 0.447 1 1s-0.447 1-1 1h-18c-0.553 0-1-0.447-1-1l-3.8-19h-3.2c-0.552 0-1-0.448-1-1s0.448-1 1-1h4c0.553 0 1 0.448 1 1l0.2 1h24.8c0.553 0 1 0.448 1 1 0 0.143-0.032 0.277-0.086 0.4zM8.6 16h3.4v-10h-5.4l2 10zM18 6h-5v10h5v-10zM24 6h-5v10h5v-10zM25 6v10h2.253l2.533-10h-4.786zM11 26c1.657 0 3 1.344 3 3s-1.343 3-3 3-3-1.344-3-3 1.343-3 3-3zM11 30c0.553 0 1-0.447 1-1s-0.447-1-1-1-1 0.447-1 1 0.447 1 1 1zM25 26c1.657 0 3 1.344 3 3s-1.343 3-3 3-3-1.344-3-3 1.343-3 3-3zM25 30c0.553 0 1-0.447 1-1s-0.447-1-1-1-1 0.447-1 1 0.447 1 1 1z"></path>
</symbol>
<symbol id="icon-cart" viewBox="0 0 32 32">
<title>cart</title>
<path class="path1" d="M12 29c0 1.657-1.343 3-3 3s-3-1.343-3-3c0-1.657 1.343-3 3-3s3 1.343 3 3z"></path>
<path class="path2" d="M32 29c0 1.657-1.343 3-3 3s-3-1.343-3-3c0-1.657 1.343-3 3-3s3 1.343 3 3z"></path>
<path class="path3" d="M32 16v-12h-24c0-1.105-0.895-2-2-2h-6v2h4l1.502 12.877c-0.915 0.733-1.502 1.859-1.502 3.123 0 2.209 1.791 4 4 4h24v-2h-24c-1.105 0-2-0.895-2-2 0-0.007 0-0.014 0-0.020l26-3.98z"></path>
</symbol>
<symbol id="icon-search2" viewBox="0 0 32 32">
<title>search2</title>
<path class="path1" d="M31.12 31.12c-1.174 1.174-3.077 1.174-4.25 0l-5.304-5.304c-2.18 1.399-4.758 2.232-7.541 2.232-7.745 0-14.024-6.278-14.024-14.024s6.279-14.024 14.024-14.024c7.746 0 14.024 6.278 14.024 14.024 0 2.782-0.834 5.361-2.232 7.542l5.304 5.304c1.174 1.174 1.174 3.076 0 4.249zM14.024 4.007c-5.532 0-10.017 4.484-10.017 10.017s4.485 10.017 10.017 10.017c5.533 0 10.017-4.484 10.017-10.017s-4.484-10.017-10.017-10.017z"></path>
</symbol>
<symbol id="icon-hyperlink" viewBox="0 0 32 32">
<title>hyperlink</title>
<path class="path1" d="M31.467 8.267l-7.733-7.733c-0.711-0.711-1.866-0.711-2.577 0l-7.733 7.733c-0.713 0.711-0.713 1.866 0 2.579l1.288 1.288 7.733-7.733 5.156 5.156-7.733 7.733 1.29 1.29c0.711 0.711 1.866 0.711 2.577 0l7.733-7.733c0.711-0.713 0.711-1.868 0-2.579zM17.29 19.867l-7.733 7.733-5.156-5.156 7.733-7.733-1.29-1.29c-0.711-0.711-1.866-0.711-2.577 0l-7.733 7.733c-0.711 0.713-0.711 1.868 0 2.579l7.733 7.733c0.711 0.711 1.866 0.711 2.577 0l7.733-7.733c0.713-0.711 0.713-1.866 0-2.579l-1.288-1.288zM10.844 21.154c0.713 0.713 1.866 0.713 2.579 0l7.733-7.733c0.711-0.711 0.711-1.864 0-2.575-0.713-0.713-1.866-0.713-2.579 0l-7.733 7.733c-0.711 0.711-0.711 1.864 0 2.575z"></path>
</symbol>
<symbol id="icon-comments" viewBox="0 0 32 32">
<title>comments</title>
<path class="path1" d="M8 14h16v4h-16zM8 8h16v4h-16zM30 0h-28c-1.106 0-2 0.895-2 2v22c0 1.105 0.895 2 2 2h4v6l9-6h15c1.105 0 2-0.895 2-2v-22c0-1.106-0.895-2-2-2zM28 22h-13l-5 3v-3h-6v-18h24v18z"></path>
</symbol>
<symbol id="icon-screen" viewBox="0 0 32 32">
<title>screen</title>
<path class="path1" d="M30 0h-28c-1.105 0-2 0.895-2 2v22c0 1.105 0.896 2 2 2h12v2h-6c-1.104 0-2 0.895-2 2v2h20v-2c0-1.105-0.895-2-2-2h-6v-2h12c1.105 0 2-0.895 2-2v-22c0-1.106-0.895-2-2-2zM28 22h-24v-18h24v18z"></path>
</symbol>
<symbol id="icon-iphone" viewBox="0 0 32 32">
<title>iphone</title>
<path class="path1" d="M26 0h-20c-1.104 0-2 0.895-2 2v28c0 1.105 0.896 2 2 2h20c1.105 0 2-0.895 2-2v-28c0-1.106-0.895-2-2-2zM24 24h-16v-20h16v20z"></path>
</symbol>
<symbol id="icon-pin" viewBox="0 0 32 32">
<title>pin</title>
<path class="path1" d="M16 0c-6.627 0-12 5.373-12 12s12 20 12 20 12-13.373 12-20-5.373-12-12-12zM16 20c-4.418 0-8-3.582-8-8s3.582-8 8-8 8 3.582 8 8-3.582 8-8 8z"></path>
</symbol>
<symbol id="icon-menu" viewBox="0 0 32 32">
<title>menu</title>
<path class="path1" d="M8 20h16v4h-16zM8 14h16v4h-16zM30 0h-28c-1.106 0-2 0.895-2 2v28c0 1.105 0.895 2 2 2h28c1.105 0 2-0.895 2-2v-28c0-1.106-0.895-2-2-2zM28 28h-24v-24h24v24zM8 8h16v4h-16z"></path>
</symbol>
<symbol id="icon-trash" viewBox="0 0 32 32">
<title>trash</title>
<path class="path1" d="M18 14h4v10h-4zM30 6h-8v-4c0-1.106-0.895-2-2-2h-8c-1.105 0-2 0.895-2 2v4h-8c-1.106 0-2 0.894-2 2v2h2v20c0 1.105 0.894 2 2 2h24c1.105 0 2-0.895 2-2v-20h2v-2c0-1.106-0.895-2-2-2zM14 4h4v2h-4v-2zM26 28h-20v-18h20v18zM10 14h4v10h-4z"></path>
</symbol>
<symbol id="icon-checkmark" viewBox="0 0 32 32">
<title>checkmark</title>
<path class="path1" d="M6 12l-6 6 12 12 20-20-6-6-14 14z"></path>
</symbol>
<symbol id="icon-check-alt" viewBox="0 0 32 32">
<title>check-alt</title>
<path class="path1" d="M16 0c-8.836 0-16 7.164-16 16s7.164 16 16 16 16-7.164 16-16-7.164-16-16-16zM13.52 23.383l-7.362-7.363 2.828-2.828 4.533 4.535 9.617-9.617 2.828 2.828-12.444 12.445z"></path>
</symbol>
<symbol id="icon-x" viewBox="0 0 32 32">
<title>x</title>
<path class="path1" d="M30 24.398l-8.406-8.398 8.406-8.398-5.602-5.602-8.398 8.402-8.402-8.402-5.598 5.602 8.398 8.398-8.398 8.398 5.598 5.602 8.402-8.402 8.398 8.402z"></path>
</symbol>
<symbol id="icon-x-altx-alt" viewBox="0 0 32 32">
<title>x-altx-alt</title>
<path class="path1" d="M16 0c-8.836 0-16 7.164-16 16s7.164 16 16 16 16-7.164 16-16-7.164-16-16-16zM23.914 21.086l-2.828 2.828-5.086-5.086-5.086 5.086-2.828-2.828 5.086-5.086-5.086-5.086 2.828-2.828 5.086 5.086 5.086-5.086 2.828 2.828-5.086 5.086 5.086 5.086z"></path>
</symbol>
<symbol id="icon-arrow-small-down" viewBox="0 0 12 32">
<title>arrow-small-down</title>
<path class="path1" d="M8 14v-4h-4v4h-4l6 8 6-8h-4z"></path>
</symbol>
<symbol id="icon-arrow-small-left" viewBox="0 0 12 32">
<title>arrow-small-left</title>
<path class="path1" d="M8 14v-4l-8 6 8 6v-4h4v-4h-4z"></path>
</symbol>
<symbol id="icon-arrow-small-right" viewBox="0 0 12 32">
<title>arrow-small-right</title>
<path class="path1" d="M12 16l-8-6v4h-4v4h4v4l8-6z"></path>
</symbol>
<symbol id="icon-arrow-small-up" viewBox="0 0 12 32">
<title>arrow-small-up</title>
<path class="path1" d="M6 10l-6 8h4v4h4v-4h4l-6-8z"></path>
</symbol>
<symbol id="icon-triangle-down" viewBox="0 0 24 32">
<title>triangle-down</title>
<path class="path1" d="M0 12l11.992 11.992 11.992-11.992h-23.984z"></path>
</symbol>
<symbol id="icon-triangle-left" viewBox="0 0 12 32">
<title>triangle-left</title>
<path class="path1" d="M0 15.996l11.992 11.992v-23.984l-11.992 11.992z"></path>
</symbol>
<symbol id="icon-triangle-right" viewBox="0 0 12 32">
<title>triangle-right</title>
<path class="path1" d="M0.002 4.008l11.992 11.992-11.992 11.992v-23.984z"></path>
</symbol>
<symbol id="icon-triangle-up" viewBox="0 0 24 32">
<title>triangle-up</title>
<path class="path1" d="M11.992 8l-11.992 11.992h23.984l-11.992-11.992z"></path>
</symbol>
<symbol id="icon-loop2" viewBox="0 0 32 32">
<title>loop2</title>
<path class="path1" d="M27.803 5.198c-2.925-3.194-7.13-5.198-11.803-5.198-8.837 0-16 7.163-16 16h3c0-7.18 5.82-13 13-13 3.844 0 7.298 1.669 9.678 4.322l-4.678 4.678h11v-11l-4.198 4.198z"></path>
<path class="path2" d="M29 16c0 7.18-5.82 13-13 13-3.844 0-7.298-1.669-9.678-4.322l4.678-4.678h-11v11l4.198-4.197c2.925 3.194 7.13 5.197 11.803 5.197 8.837 0 16-7.163 16-16h-3z"></path>
</symbol>
<symbol id="icon-attachment" viewBox="0 0 32 32">
<title>attachment</title>
<path class="path1" d="M20.807 10.22l-2.030-2.029-10.15 10.148c-1.682 1.681-1.682 4.408 0 6.089s4.408 1.681 6.090 0l12.18-12.178c2.804-2.802 2.804-7.346 0-10.148-2.802-2.803-7.347-2.803-10.149 0l-12.788 12.787c-0.009 0.009-0.019 0.018-0.027 0.026-3.909 3.909-3.909 10.245 0 14.153 3.908 3.908 10.246 3.908 14.156 0 0.009-0.009 0.016-0.018 0.026-0.027l0.001 0.001 8.729-8.728-2.031-2.029-8.729 8.727c-0.009 0.008-0.018 0.018-0.026 0.026-2.784 2.783-7.312 2.783-10.096 0-2.783-2.783-2.783-7.31 0-10.093 0.010-0.009 0.019-0.018 0.028-0.026l-0.001-0.002 12.79-12.786c1.678-1.679 4.411-1.679 6.090 0s1.678 4.411 0 6.089l-12.18 12.178c-0.56 0.56-1.47 0.56-2.030 0-0.559-0.559-0.559-1.47 0-2.029l10.15-10.149z"></path>
</symbol>
<symbol id="icon-folder-upload" viewBox="0 0 32 32">
<title>folder-upload</title>
<path class="path1" d="M18 8l-4-4h-14v26h32v-22h-14zM16 15l7 7h-5v8h-4v-8h-5l7-7z"></path>
</symbol>
<symbol id="icon-box-remove" viewBox="0 0 32 32">
<title>box-remove</title>
<path class="path1" d="M26 2h-20l-6 6v21c0 0.552 0.448 1 1 1h30c0.552 0 1-0.448 1-1v-21l-6-6zM20 20v6h-8v-6h-6l10-8 10 8h-6zM4.828 6l2-2h18.343l2 2h-22.343z"></path>
</symbol>
<symbol id="icon-drawer2" viewBox="0 0 32 32">
<title>drawer2</title>
<path class="path1" d="M31.781 20.375l-8-10c-0.19-0.237-0.477-0.375-0.781-0.375h-14c-0.304 0-0.591 0.138-0.781 0.375l-8 10c-0.142 0.177-0.219 0.398-0.219 0.625v9c0 1.105 0.895 2 2 2h28c1.105 0 2-0.895 2-2v-9c0-0.227-0.077-0.447-0.219-0.625zM30 22h-7l-4 4h-6l-4-4h-7v-0.649l7.481-9.351h13.039l7.481 9.351v0.649z"></path>
</symbol>
<symbol id="icon-browser" viewBox="0 0 32 32">
<title>browser</title>
<path class="path1" d="M30 32h-28c-1.106 0-2-0.895-2-2v-28c0-1.106 0.895-2 2-2h28c1.105 0 2 0.895 2 2v28c0 1.105-0.895 2-2 2zM28 4h-24v6h24v-6zM28 14h-24v14h24v-14zM8 8h-2v-2h2v2zM12 8h-2v-2h2v2zM26 8h-12v-2h12v2z"></path>
</symbol>
<symbol id="icon-calendar" viewBox="0 0 32 32">
<title>calendar</title>
<path class="path1" d="M26 0h-4v4h4v-4zM30 0h-2v6h-8v-6h-8v6h-8v-6h-2c-1.106 0-2 0.896-2 2v28c0 1.105 0.895 2 2 2h28c1.105 0 2-0.895 2-2v-28c0-1.105-0.895-2-2-2zM28 28h-24v-18h24v18zM10 0h-4v4h4v-4zM18 14h-4v4h4v-4zM24 14h-4v4h4v-4zM12 20h-4v4h4v-4zM12 14h-4v4h4v-4zM18 20h-4v4h4v-4zM24 20h-4v4h4v-4z"></path>
</symbol>
<symbol id="icon-hour-glass" viewBox="0 0 32 32">
<title>hour-glass</title>
<path class="path1" d="M22.781 16c4.305-2.729 7.219-7.975 7.219-14 0-0.677-0.037-1.345-0.109-2h-27.783c-0.072 0.655-0.109 1.323-0.109 2 0 6.025 2.914 11.271 7.219 14-4.305 2.729-7.219 7.975-7.219 14 0 0.677 0.037 1.345 0.109 2h27.783c0.072-0.655 0.109-1.323 0.109-2 0-6.025-2.914-11.271-7.219-14zM5 30c0-5.841 2.505-10.794 7-12.428v-3.143c-4.495-1.634-7-6.587-7-12.428v0h22c0 5.841-2.505 10.794-7 12.428v3.143c4.495 1.634 7 6.587 7 12.428h-22zM19.363 20.925c-2.239-1.27-2.363-2.918-2.363-3.918v-2.007c0-1 0.119-2.654 2.367-3.927 1.203-0.699 2.244-1.761 3.033-3.073h-12.799c0.79 1.313 1.832 2.376 3.036 3.075 2.239 1.27 2.363 2.918 2.363 3.918v2.007c0 1-0.119 2.654-2.367 3.927-2.269 1.318-3.961 3.928-4.472 7.073h15.677c-0.511-3.147-2.204-5.758-4.475-7.075z"></path>
</symbol>
<symbol id="icon-write" viewBox="0 0 18 18">
<title>write</title>
<path class="path1" d="M16.001 11c-0.553 0-1 0.448-1 1v2.5c0 0.276-0.224 0.5-0.5 0.5h-11.002c-0.276 0-0.5-0.224-0.5-0.5v-11c0-0.276 0.224-0.5 0.5-0.5h2.5c0.553 0 1-0.448 1-1s-0.448-1-1-1h-4c-0.553 0-1 0.448-1 1v14c0 0.552 0.448 1 1 1h14.002c0.553 0 1-0.448 1-1v-4c0-0.552-0.447-1-1-1z"></path>
<path class="path2" d="M13.169 3.403l1.429 1.429-5.948 6.168h-1.65v-1.65l6.169-5.947zM13.182 1c-0.256 0-0.511 0.097-0.706 0.292l-7.476 7.208v4.5h4.501l7.209-7.475c0.39-0.39 0.39-1.021 0-1.411l-2.822-2.822c-0.194-0.195-0.45-0.292-0.705-0.292v0z"></path>
</symbol>
<symbol id="icon-windows" viewBox="0 0 18 18">
<title>windows</title>
<path class="path1" d="M17 1h-10c-0.552 0-1 0.448-1 1v3h-5c-0.552 0-1 0.448-1 1v10c0 0.552 0.448 1 1 1h10c0.552 0 1-0.448 1-1v-3h5c0.552 0 1-0.448 1-1v-10c0-0.552-0.448-1-1-1zM10 14.5c0 0.276-0.224 0.5-0.5 0.5h-7c-0.276 0-0.5-0.224-0.5-0.5v-7c0-0.276 0.224-0.5 0.5-0.5h7c0.276 0 0.5 0.224 0.5 0.5v7zM16 10.5c0 0.276-0.224 0.5-0.5 0.5h-3.5v-5c0-0.552-0.448-1-1-1h-3v-1.5c0-0.276 0.224-0.5 0.5-0.5h7c0.276 0 0.5 0.224 0.5 0.5v7z"></path>
</symbol>
<symbol id="icon-trashcan" viewBox="0 0 48 48">
<title>trashcan</title>
<path class="path1" d="M42.5 10h-6.5v-6c0-2.21-1.79-4-4-4h-16c-2.21 0-4 1.79-4 4v6h-6.5c-1.38 0-2.5 1.12-2.5 2.5s1.12 2.5 2.5 2.5h1.5v29c0 2.21 1.79 4 4 4h26c2.21 0 4-1.79 4-4l-0-29h1.5c1.38 0 2.5-1.12 2.5-2.5s-1.12-2.5-2.5-2.5zM31 10h-14v-2.8c0-1.22 0.98-2.2 2.2-2.2h9.6c1.22 0 2.2 0.98 2.2 2.2v2.8zM17 17v24c0 1.1-0.9 2-2 2s-2-0.9-2-2v-24c0-1.1 0.9-2 2-2s2 0.9 2 2zM26 17v24c0 1.1-0.9 2-2 2s-2-0.9-2-2v-24c0-1.1 0.9-2 2-2s2 0.9 2 2zM35 17v24c0 1.1-0.9 2-2 2s-2-0.9-2-2v-24c0-1.1 0.9-2 2-2s2 0.9 2 2z"></path>
</symbol>
<symbol id="icon-user" viewBox="0 0 48 48">
<title>user</title>
<path class="path1" d="M41.689 34.59c-2.899-3.79-6.64-5.75-12.959-6.38-1.141-0.229-2-1.24-2-2.44 0-0.879 2.819-3.51 2.799-3.529 2.91-3.011 4.471-7.901 4.471-11.661 0-5.84-4.7-10.58-10.5-10.58s-10.5 4.74-10.5 10.58c0 3.78 1.52 8.7 4.46 11.71 0 0 2.81 2.601 2.81 3.479 0 1.271-0.96 2.33-2.2 2.48-6.19 0.65-9.89 2.6-12.76 6.34-0.83 1.081-1.28 3.251-1.31 4.411 0.010 0.3 0 5 0 5 0 2.21 1.79 4 4 4h31c2.21 0 4-1.79 4-4 0 0-0.010-4.7 0-5-0.029-1.16-0.48-3.33-1.311-4.41z"></path>
</symbol>
<symbol id="icon-camera" viewBox="0 0 48 48">
<title>camera</title>
<path class="path1" d="M27 27.5c0-1.38 1.12-2.5 2.5-2.5s2.5 1.12 2.5 2.5-1.12 2.5-2.5 2.5-2.5-1.12-2.5-2.5zM29.5 21c-3.59 0-6.5 2.91-6.5 6.5s2.91 6.5 6.5 6.5 6.5-2.91 6.5-6.5-2.91-6.5-6.5-6.5zM0 39c0 2.21 1.79 4 4 4h40c2.21 0 4-1.79 4-4l-0-23c0-2.21-1.79-4-4-4h-3.75l-5.12-5.12c-0.59-0.59-1.36-0.88-2.13-0.88h-6.99c-0.77 0-1.55 0.29-2.13 0.88l-5.1 5.12h-3.78v-2.25c0-0.97-0.78-1.75-1.75-1.75h-6.5c-0.97 0-1.75 0.78-1.75 1.75v2.25h-1c-2.21 0-4 1.79-4 4v23zM13 21h-6c-1.1 0-2-0.9-2-2s0.9-2 2-2h6c1.1 0 2 0.9 2 2s-0.9 2-2 2zM29.5 17c5.8 0 10.5 4.7 10.5 10.5s-4.7 10.5-10.5 10.5-10.5-4.7-10.5-10.5 4.7-10.5 10.5-10.5z"></path>
</symbol>
<symbol id="icon-eye" viewBox="0 0 20 20">
<title>eye</title>
<path class="path1" d="M10 4.4c-6.561 0-10 4.832-10 5.6 0 0.766 3.439 5.6 10 5.6s10-4.834 10-5.6c0-0.768-3.44-5.6-10-5.6zM10 14.307c-2.455 0-4.445-1.928-4.445-4.307s1.99-4.309 4.445-4.309c2.455 0 4.444 1.93 4.444 4.309s-1.989 4.307-4.444 4.307zM10 10c-0.407-0.447 0.663-2.154 0-2.154-1.228 0-2.223 0.965-2.223 2.154s0.995 2.154 2.223 2.154c1.227 0 2.223-0.965 2.223-2.154 0-0.547-1.877 0.379-2.223 0z"></path>
</symbol>
<symbol id="icon-edit" viewBox="0 0 20 20">
<title>edit</title>
<path class="path1" d="M17.561 2.439c-1.442-1.443-2.525-1.227-2.525-1.227l-12.826 12.825-1.010 4.762 4.763-1.010 12.826-12.823c-0.001 0 0.216-1.083-1.228-2.527zM5.68 17.217l-1.624 0.35c-0.156-0.293-0.345-0.586-0.69-0.932s-0.639-0.533-0.932-0.691l0.35-1.623 0.47-0.469c0 0 0.883 0.018 1.881 1.016 0.997 0.996 1.016 1.881 1.016 1.881l-0.471 0.468z"></path>
</symbol>
<symbol id="icon-pencil" viewBox="0 0 20 20">
<title>pencil</title>
<path class="path1" d="M14.69 2.661c-1.894-1.379-3.242-1.349-3.754-1.266-0.144 0.023-0.265 0.106-0.35 0.223l-6.883 9.497c-0.277 0.382-0.437 0.836-0.462 1.307l-0.296 5.624c-0.021 0.405 0.382 0.698 0.76 0.553l5.256-2.010c0.443-0.17 0.828-0.465 1.106-0.849l6.88-9.494c0.089-0.123 0.125-0.273 0.1-0.423-0.084-0.526-0.487-1.802-2.357-3.162zM8.977 15.465l-2.043 0.789c-0.080 0.031-0.169 0.006-0.221-0.062-0.263-0.335-0.576-0.667-1.075-1.030-0.499-0.362-0.911-0.558-1.31-0.706-0.080-0.030-0.131-0.106-0.126-0.192l0.122-2.186 0.549-0.755c0 0 1.229-0.169 2.833 0.998 1.602 1.166 1.821 2.388 1.821 2.388l-0.55 0.756z"></path>
</symbol>
<symbol id="icon-chevron-thin-down" viewBox="0 0 20 20">
<title>chevron-thin-down</title>
<path class="path1" d="M17.418 6.109c0.272-0.268 0.709-0.268 0.979 0s0.271 0.701 0 0.969l-7.908 7.83c-0.27 0.268-0.707 0.268-0.979 0l-7.908-7.83c-0.27-0.268-0.27-0.701 0-0.969s0.709-0.268 0.979 0l7.419 7.141 7.418-7.141z"></path>
</symbol>
<symbol id="icon-chevron-thin-left" viewBox="0 0 20 20">
<title>chevron-thin-left</title>
<path class="path1" d="M13.891 17.418c0.268 0.272 0.268 0.709 0 0.979s-0.701 0.271-0.969 0l-7.83-7.908c-0.268-0.27-0.268-0.707 0-0.979l7.83-7.908c0.268-0.27 0.701-0.27 0.969 0s0.268 0.709 0 0.979l-7.141 7.419 7.141 7.418z"></path>
</symbol>
<symbol id="icon-chevron-thin-right" viewBox="0 0 20 20">
<title>chevron-thin-right</title>
<path class="path1" d="M13.25 10l-7.141-7.42c-0.268-0.27-0.268-0.707 0-0.979 0.268-0.27 0.701-0.27 0.969 0l7.83 7.908c0.268 0.271 0.268 0.709 0 0.979l-7.83 7.908c-0.268 0.271-0.701 0.27-0.969 0s-0.268-0.707 0-0.979l7.141-7.417z"></path>
</symbol>
<symbol id="icon-chevron-thin-up" viewBox="0 0 20 20">
<title>chevron-thin-up</title>
<path class="path1" d="M2.582 13.891c-0.272 0.268-0.709 0.268-0.979 0s-0.271-0.701 0-0.969l7.908-7.83c0.27-0.268 0.707-0.268 0.979 0l7.908 7.83c0.27 0.268 0.27 0.701 0 0.969s-0.709 0.268-0.978 0l-7.42-7.141-7.418 7.141z"></path>
</symbol>
<symbol id="icon-codepen" viewBox="0 0 28 28">
<title>codepen</title>
<path class="path1" d="M3.375 18.266l9.422 6.281v-5.609l-5.219-3.484zM2.406 16.016l3.016-2.016-3.016-2.016v4.031zM15.203 24.547l9.422-6.281-4.203-2.812-5.219 3.484v5.609zM14 16.844l4.25-2.844-4.25-2.844-4.25 2.844zM7.578 12.547l5.219-3.484v-5.609l-9.422 6.281zM22.578 14l3.016 2.016v-4.031zM20.422 12.547l4.203-2.812-9.422-6.281v5.609zM28 9.734v8.531q0 0.641-0.531 1l-12.797 8.531q-0.328 0.203-0.672 0.203t-0.672-0.203l-12.797-8.531q-0.531-0.359-0.531-1v-8.531q0-0.641 0.531-1l12.797-8.531q0.328-0.203 0.672-0.203t0.672 0.203l12.797 8.531q0.531 0.359 0.531 1z"></path>
</symbol>
<symbol id="icon-people" viewBox="0 0 28 28">
<title>people</title>
<path class="path1" d="M23.9 4.1c-2.643-2.643-6.159-4.1-9.9-4.1s-7.257 1.456-9.9 4.1-4.1 6.159-4.1 9.9c0 3.742 1.456 7.257 4.1 9.9s6.159 4.1 9.9 4.1c3.742 0 7.257-1.456 9.9-4.1s4.1-6.159 4.1-9.9c0-3.742-1.456-7.257-4.1-9.9zM21.986 19.983c-1.814 2.404-4.916 5.481-8.161 5.481-3.296 0-6.002-3.12-7.816-5.594 0 0 0-0.006 0-0.006-1.212-1.645-1.927-3.673-1.927-5.87 0-5.468 4.445-9.913 9.913-9.913s9.913 4.445 9.913 9.913c0 2.216-0.728 4.263-1.965 5.914 0.019 0.031 0.031 0.050 0.044 0.075z"></path>
<path class="path2" d="M17.214 16.875c-2.091 0.352-4.156 0.465-6.247-0.113-2.109-0.578-3.842 0.402-4.709 2.448-0.088 0.213-0.163 0.427-0.245 0.653 0 0 0 0.006 0 0.006 1.808 2.467 4.52 5.594 7.816 5.594 3.246 0 6.341-3.076 8.161-5.481-0.013-0.025-0.019-0.044-0.031-0.069-0.201-0.414-0.377-0.81-0.609-1.174-0.935-1.576-2.298-2.172-4.137-1.865z"></path>
<path class="path3" d="M14.013 7.891c-2.191 0.044-4.062 1.959-4.018 4.125 0.044 2.191 1.959 4.062 4.125 4.018 2.191-0.044 4.062-1.959 4.018-4.125-0.038-2.21-1.971-4.081-4.125-4.018z"></path>
</symbol>
<symbol id="icon-phone" viewBox="0 0 20 28">
<title>phone</title>
<path class="path1" d="M12.729 21.303c0 0-2.921-0.032-4.344 0.032-0.419 0.016-0.903 0.234-1.201 0.516-1.048 0.983-2.031 2.031-3.030 3.046-0.125 0.125-0.298 0.222-0.564 0.439 0-1.422 0-2.688 0-4.062-0.842 0-1.592 0-2.357 0 0-6.246 0-12.37 0-18.539 3.844 0 11.496 0 11.496 0l-0.004 1.483h1.201l0.004-1.829c0.016-1.12 0-2.373-1.837-2.373-3.296 0-8.474-0.016-10.235-0.016-1.664 0-1.858 0.758-1.858 1.95 0 2.825 0 13.474 0 19.998 0 2.671 0.274 2.397 2.498 2.397 0 1.281 0 2.466 0 3.655 1.108-1.048 2.172-2.031 3.187-3.062 0.407-0.403 0.782-0.608 1.358-0.592 1.688 0.048 3.389 0.032 5.077 0.016 0.919-0.016 1.656-0.451 1.733-1.249l0.012-3.312h-1.14l0.004 1.503zM5.182 1.346c1.189 0 2.373 0 3.546 0 0 0.064 0 0.109 0 0.173-1.189 0-2.357 0-3.546 0 0-0.064 0-0.109 0-0.173z"></path>
<path class="path2" d="M19.99 12.012c0.218-3.389-2.764-6.717-6.544-6.717-3.622 0.016-6.608 3.062-6.576 6.749 0.032 3.655 2.982 6.669 6.576 6.669 3.872 0 6.761-3.344 6.544-6.701zM10.146 13.2c-0.294 0.532 0.125 1.281-0.576 1.749-0.234 0.157-0.157 0.766-0.234 1.173-1.342-1.044-2.123-3.465-1.608-5.262 0.359 0.278 0.625 0.484 0.886 0.717 0.455 0.359 0.89 0.717 1.314 1.108 0.125 0.125 0.282 0.407 0.218 0.516zM18.487 11.016c-0.435 1.201-0.794 2.45-1.342 3.622-0.234 0.484-0.749 0.939-1.515 0.782-0.081-0.689-0.689-1.297-0.157-2.063 0.081-0.125-0.218-0.455-0.234-0.689-0.113-1.342-0.987-1.249-1.954-1.14-0.608 0.081-1.108-0.576-1.108-1.201 0.016-1.169 1.173-2.059 2.313-1.982 0.58 0.028 1.124 0.343 1.688 0.467 0.173 0.044 0.375-0.125 0.564-0.189-0.125-0.141-0.218-0.33-0.375-0.407-0.234-0.109-0.516-0.141-0.766-0.218-0.673-0.5-1.064-0.5-1.858 0.117-0.185 0.125-0.484 0.109-0.717 0.157-0.016-0.077-0.048-0.173-0.064-0.266 0.185-0.081 0.375-0.173 0.608-0.282-0.093-0.141-0.169-0.298-0.218-0.391 0.467-0.153 0.907-0.31 1.358-0.467 0-0.064-0.016-0.109-0.016-0.173-0.093-0.016-0.205 0-0.282-0.048-0.185-0.093-0.343-0.234-0.5-0.343 0.185-0.064 0.403-0.189 0.576-0.157 1.7 0.314 3.014 1.237 3.904 2.704 0.435 0.717 0.201 1.402-0.548 1.717 0.201 0.137 0.375 0.262 0.641 0.451z"></path>
</symbol>
<symbol id="icon-uniE912" viewBox="0 0 20 28">
<title>uniE912</title>
<path class="path1" d="M9.753 11.21c0.186 0.053 0.362 0.113 0.529 0.186 0.918 0.382 1.506 0.988 1.816 1.703 0.306 0.708 0.336 1.51 0.136 2.298-0.043 0.176-0.103 0.359-0.173 0.539l-0.944-0.299c0.063-0.156 0.116-0.316 0.16-0.482 0.146-0.579 0.13-1.161-0.086-1.659-0.213-0.492-0.628-0.911-1.284-1.187-0.136-0.057-0.286-0.106-0.449-0.153l0.296-0.944zM10.801 19.939l0.549-0.279c-0.309-1.427-1.636-3.073-1.925-3.156l-0.579 0.299-0.429 0.219-0.086 0.043-0.672 0.343c-0.938-1.413-1.104-1.899-1.719-3.535l0.585-0.299 0.861-0.439 0.249-0.13c0.113-0.509-0.748-2.873-1.4-3.422l-0.492 0.253-0.951 0.482c-0.865 0.459-1.247 1.057-1.144 1.792l0.007 0.030-0.003 0.003c0.628 3.219 1.869 5.766 4.074 8.161 0.535 0.515 1.244 0.555 2.125 0.123l0.951-0.489zM9.554 13.568c-0.486-0.153-1.004 0.116-1.161 0.602-0.153 0.486 0.116 1.004 0.602 1.161 0.486 0.153 1.004-0.116 1.161-0.602 0.153-0.486-0.116-1.004-0.602-1.161v0zM10.379 9.235l-0.299 0.944c0.186 0.043 0.372 0.1 0.552 0.17 0.934 0.352 1.733 1.021 2.231 1.905 0.502 0.885 0.705 1.992 0.442 3.219-0.053 0.256-0.13 0.515-0.226 0.785l0.944 0.299c0.103-0.296 0.186-0.585 0.246-0.875 0.316-1.486 0.066-2.833-0.549-3.917-0.615-1.087-1.596-1.909-2.743-2.341-0.19-0.076-0.392-0.14-0.599-0.19z"></path>
</symbol>
<symbol id="icon-cloud-upload" viewBox="0 0 30 28">
<title>cloud-upload</title>
<path class="path1" d="M20 13.5q0-0.219-0.141-0.359l-5.5-5.5q-0.141-0.141-0.359-0.141t-0.359 0.141l-5.484 5.484q-0.156 0.187-0.156 0.375 0 0.219 0.141 0.359t0.359 0.141h3.5v5.5q0 0.203 0.148 0.352t0.352 0.148h3q0.203 0 0.352-0.148t0.148-0.352v-5.5h3.5q0.203 0 0.352-0.148t0.148-0.352zM30 18q0 2.484-1.758 4.242t-4.242 1.758h-17q-2.891 0-4.945-2.055t-2.055-4.945q0-2.031 1.094-3.75t2.938-2.578q-0.031-0.469-0.031-0.672 0-3.313 2.344-5.656t5.656-2.344q2.438 0 4.461 1.359t2.945 3.609q1.109-0.969 2.594-0.969 1.656 0 2.828 1.172t1.172 2.828q0 1.188-0.641 2.156 2.031 0.484 3.336 2.117t1.305 3.727z"></path>
</symbol>
</defs>
</svg>
